<svg width="24" height="24" viewBox="0 0 24 24" fill="none" xmlns="http://www.w3.org/2000/svg">
<g opacity="0.3">
<path d="M19.6558 11.4697C19.7255 11.5393 19.7808 11.622 19.8186 11.7131C19.8563 11.8041 19.8757 11.9017 19.8757 12.0003C19.8757 12.0989 19.8563 12.1964 19.8186 12.2875C19.7808 12.3785 19.7255 12.4613 19.6558 12.5309L11.9636 20.2184C10.9788 21.203 9.6433 21.7561 8.25076 21.756C6.85821 21.756 5.52274 21.2027 4.53812 20.2179C3.5535 19.2332 3.0004 17.8977 3.00049 16.5051C3.00058 15.1126 3.55385 13.7771 4.53859 12.7925L13.8442 3.34998C14.5472 2.6462 15.5011 2.25053 16.4958 2.25C17.4906 2.24947 18.4448 2.64414 19.1486 3.34717C19.8524 4.0502 20.248 5.00401 20.2486 5.99877C20.2491 6.99354 19.8544 7.94776 19.1514 8.65154L9.8439 18.094C9.42121 18.5167 8.84792 18.7542 8.25015 18.7542C7.65238 18.7542 7.07909 18.5167 6.6564 18.094C6.23371 17.6714 5.99625 17.0981 5.99625 16.5003C5.99625 15.9025 6.23371 15.3292 6.6564 14.9065L14.4658 6.97342C14.5342 6.90044 14.6165 6.84188 14.7079 6.8012C14.7993 6.76051 14.8979 6.73851 14.9979 6.7365C15.0979 6.73448 15.1973 6.7525 15.2902 6.78947C15.3832 6.82645 15.4678 6.88165 15.539 6.95181C15.6103 7.02198 15.6669 7.1057 15.7053 7.19804C15.7438 7.29038 15.7634 7.38948 15.7629 7.4895C15.7625 7.58953 15.7421 7.68846 15.7029 7.78048C15.6636 7.87249 15.6064 7.95573 15.5345 8.02529L7.72421 15.9669C7.65428 16.0362 7.5987 16.1187 7.56065 16.2096C7.52259 16.3004 7.5028 16.3979 7.50241 16.4964C7.50202 16.5949 7.52103 16.6925 7.55836 16.7836C7.5957 16.8748 7.65062 16.9577 7.71999 17.0276C7.78937 17.0976 7.87184 17.1531 7.96269 17.1912C8.05355 17.2293 8.15101 17.2491 8.24951 17.2494C8.34801 17.2498 8.44563 17.2308 8.53678 17.1935C8.62794 17.1562 8.71085 17.1012 8.78078 17.0319L18.0873 7.59404C18.51 7.17222 18.7478 6.59977 18.7485 6.00261C18.7491 5.40545 18.5124 4.83251 18.0906 4.40982C17.6688 3.98713 17.0963 3.74932 16.4992 3.74871C15.902 3.74809 15.3291 3.98472 14.9064 4.40654L5.60265 13.8453C5.25411 14.1933 4.97753 14.6065 4.78869 15.0614C4.59985 15.5162 4.50246 16.0039 4.50207 16.4964C4.50167 16.9889 4.59829 17.4767 4.78641 17.9318C4.97452 18.387 5.25045 18.8007 5.59843 19.1492C5.94641 19.4977 6.35964 19.7743 6.81451 19.9632C7.26938 20.152 7.757 20.2494 8.24951 20.2498C8.74202 20.2502 9.22979 20.1536 9.68496 19.9654C10.1401 19.7773 10.5538 19.5014 10.9023 19.1534L18.5955 11.4659C18.7366 11.3259 18.9276 11.2476 19.1264 11.2483C19.3252 11.249 19.5156 11.3286 19.6558 11.4697Z" fill="#DDDDDD"/>
</g>
</svg>
