<svg width="25" height="24" viewBox="0 0 25 24" fill="none" xmlns="http://www.w3.org/2000/svg">
<path d="M20.4036 9.53104L12.9036 17.031C12.8339 17.1008 12.7512 17.1561 12.6602 17.1938C12.5691 17.2316 12.4715 17.251 12.373 17.251C12.2744 17.251 12.1768 17.2316 12.0858 17.1938C11.9947 17.1561 11.912 17.1008 11.8424 17.031L4.34235 9.53104C4.20162 9.39031 4.12256 9.19944 4.12256 9.00042C4.12256 8.80139 4.20162 8.61052 4.34235 8.46979C4.48308 8.32906 4.67395 8.25 4.87298 8.25C5.072 8.25 5.26287 8.32906 5.4036 8.46979L12.373 15.4401L19.3424 8.46979C19.412 8.40011 19.4948 8.34483 19.5858 8.30712C19.6768 8.26941 19.7744 8.25 19.873 8.25C19.9715 8.25 20.0691 8.26941 20.1601 8.30712C20.2512 8.34483 20.3339 8.40011 20.4036 8.46979C20.4733 8.53947 20.5286 8.6222 20.5663 8.71324C20.604 8.80429 20.6234 8.90187 20.6234 9.00042C20.6234 9.09896 20.604 9.19654 20.5663 9.28759C20.5286 9.37863 20.4733 9.46136 20.4036 9.53104Z" fill="white"/>
</svg>
