<svg width="25" height="24" viewBox="0 0 25 24" fill="none" xmlns="http://www.w3.org/2000/svg">
<path d="M17.4036 15.97C17.4733 16.0396 17.5287 16.1223 17.5664 16.2134C17.6041 16.3044 17.6236 16.402 17.6236 16.5006C17.6236 16.5992 17.6041 16.6967 17.5664 16.7878C17.5287 16.8788 17.4733 16.9616 17.4036 17.0312L12.9036 21.5312C12.8339 21.6009 12.7512 21.6563 12.6602 21.694C12.5691 21.7318 12.4715 21.7512 12.373 21.7512C12.2744 21.7512 12.1768 21.7318 12.0858 21.694C11.9947 21.6563 11.912 21.6009 11.8424 21.5312L7.34235 17.0312C7.20162 16.8905 7.12256 16.6996 7.12256 16.5006C7.12256 16.3016 7.20162 16.1107 7.34235 15.97C7.48308 15.8292 7.67395 15.7502 7.87298 15.7502C8.072 15.7502 8.26287 15.8292 8.4036 15.97L12.373 19.9403L16.3424 15.97C16.412 15.9002 16.4947 15.8449 16.5858 15.8072C16.6768 15.7694 16.7744 15.75 16.873 15.75C16.9715 15.75 17.0691 15.7694 17.1602 15.8072C17.2512 15.8449 17.3339 15.9002 17.4036 15.97ZM8.4036 8.03122L12.373 4.0609L16.3424 8.03122C16.4831 8.17195 16.674 8.25101 16.873 8.25101C17.072 8.25101 17.2629 8.17195 17.4036 8.03122C17.5443 7.89048 17.6234 7.69961 17.6234 7.50059C17.6234 7.30157 17.5443 7.1107 17.4036 6.96996L12.9036 2.46996C12.8339 2.40023 12.7512 2.34491 12.6602 2.30717C12.5691 2.26943 12.4715 2.25 12.373 2.25C12.2744 2.25 12.1768 2.26943 12.0858 2.30717C11.9947 2.34491 11.912 2.40023 11.8424 2.46996L7.34235 6.96996C7.20162 7.1107 7.12256 7.30157 7.12256 7.50059C7.12256 7.69961 7.20162 7.89048 7.34235 8.03121C7.48308 8.17195 7.67395 8.25101 7.87298 8.25101C8.072 8.25101 8.26287 8.17195 8.4036 8.03122Z" fill="white"/>
</svg>
