<svg width="28" height="28" viewBox="0 0 28 28" fill="none" xmlns="http://www.w3.org/2000/svg">
<path d="M14 0.1875C11.2682 0.1875 8.59765 0.997589 6.32619 2.51533C4.05474 4.03306 2.28436 6.19028 1.23892 8.71418C0.193485 11.2381 -0.0800488 14.0153 0.45291 16.6947C0.985868 19.374 2.30138 21.8352 4.23309 23.7669C6.16481 25.6986 8.62596 27.0141 11.3053 27.5471C13.9847 28.0801 16.7619 27.8065 19.2858 26.7611C21.8097 25.7157 23.9669 23.9453 25.4847 21.6738C27.0024 19.4024 27.8125 16.7319 27.8125 14C27.8086 10.3379 26.3522 6.82687 23.7626 4.23736C21.1731 1.64785 17.6621 0.191367 14 0.1875ZM15.5938 20.375H15.0625V21.4375C15.0625 21.7193 14.9506 21.9895 14.7513 22.1888C14.5521 22.3881 14.2818 22.5 14 22.5C13.7182 22.5 13.448 22.3881 13.2487 22.1888C13.0494 21.9895 12.9375 21.7193 12.9375 21.4375V20.375H10.8125C10.5307 20.375 10.2605 20.2631 10.0612 20.0638C9.86195 19.8645 9.75001 19.5943 9.75001 19.3125C9.75001 19.0307 9.86195 18.7605 10.0612 18.5612C10.2605 18.3619 10.5307 18.25 10.8125 18.25H15.5938C16.0164 18.25 16.4218 18.0821 16.7207 17.7832C17.0196 17.4843 17.1875 17.0789 17.1875 16.6562C17.1875 16.2336 17.0196 15.8282 16.7207 15.5293C16.4218 15.2304 16.0164 15.0625 15.5938 15.0625H12.4063C11.42 15.0625 10.4741 14.6707 9.7767 13.9733C9.0793 13.2759 8.68751 12.33 8.68751 11.3438C8.68751 10.3575 9.0793 9.4116 9.7767 8.7142C10.4741 8.0168 11.42 7.625 12.4063 7.625H12.9375V6.5625C12.9375 6.28071 13.0494 6.01046 13.2487 5.8112C13.448 5.61194 13.7182 5.5 14 5.5C14.2818 5.5 14.5521 5.61194 14.7513 5.8112C14.9506 6.01046 15.0625 6.28071 15.0625 6.5625V7.625H17.1875C17.4693 7.625 17.7395 7.73694 17.9388 7.9362C18.1381 8.13546 18.25 8.40571 18.25 8.6875C18.25 8.96929 18.1381 9.23954 17.9388 9.4388C17.7395 9.63806 17.4693 9.75 17.1875 9.75H12.4063C11.9836 9.75 11.5782 9.91791 11.2793 10.2168C10.9804 10.5157 10.8125 10.9211 10.8125 11.3438C10.8125 11.7664 10.9804 12.1718 11.2793 12.4707C11.5782 12.7696 11.9836 12.9375 12.4063 12.9375H15.5938C16.58 12.9375 17.5259 13.3293 18.2233 14.0267C18.9207 14.7241 19.3125 15.67 19.3125 16.6562C19.3125 17.6425 18.9207 18.5884 18.2233 19.2858C17.5259 19.9832 16.58 20.375 15.5938 20.375Z" fill="#F8F8F8"/>
</svg>
