<svg width="32" height="24" viewBox="0 0 32 24" fill="none" xmlns="http://www.w3.org/2000/svg">
<path d="M23.4375 6.89602V6.15625C23.4375 2.82531 18.4132 0.3125 11.75 0.3125C5.0868 0.3125 0.0625 2.82531 0.0625 6.15625V11.4688C0.0625 14.2432 3.54883 16.4479 8.5625 17.108V17.8438C8.5625 21.1747 13.5868 23.6875 20.25 23.6875C26.9132 23.6875 31.9375 21.1747 31.9375 17.8438V12.5312C31.9375 9.78203 28.5614 7.57469 23.4375 6.89602ZM6.4375 14.5062C3.8357 13.7797 2.1875 12.583 2.1875 11.4688V9.60008C3.27125 10.3677 4.72289 10.9866 6.4375 11.4023V14.5062ZM17.0625 11.4023C18.7771 10.9866 20.2288 10.3677 21.3125 9.60008V11.4688C21.3125 12.583 19.6643 13.7797 17.0625 14.5062V11.4023ZM14.9375 20.8812C12.3357 20.1547 10.6875 18.958 10.6875 17.8438V17.2899C11.0368 17.3032 11.3901 17.3125 11.75 17.3125C12.2653 17.3125 12.7687 17.2952 13.2627 17.266C13.8116 17.4625 14.3707 17.6292 14.9375 17.7654V20.8812ZM14.9375 14.9551C13.8822 15.111 12.8168 15.1887 11.75 15.1875C10.6832 15.1887 9.61782 15.111 8.5625 14.9551V11.7955C9.61939 11.9332 10.6842 12.0015 11.75 12C12.8158 12.0015 13.8806 11.9332 14.9375 11.7955V14.9551ZM23.4375 21.3301C21.3238 21.64 19.1762 21.64 17.0625 21.3301V18.1625C18.1191 18.3045 19.1839 18.3755 20.25 18.375C21.3158 18.3765 22.3806 18.3082 23.4375 18.1705V21.3301ZM29.8125 17.8438C29.8125 18.958 28.1643 20.1547 25.5625 20.8812V17.7773C27.2771 17.3616 28.7288 16.7427 29.8125 15.9751V17.8438Z" fill="#F8F8F8"/>
</svg>
