<svg width="36" height="36" viewBox="0 0 36 36" fill="none" xmlns="http://www.w3.org/2000/svg">
<path d="M20.0625 18.0005C20.0625 18.4084 19.9415 18.8072 19.7149 19.1463C19.4883 19.4855 19.1662 19.7499 18.7893 19.906C18.4124 20.0621 17.9977 20.1029 17.5976 20.0233C17.1975 19.9438 16.83 19.7473 16.5416 19.4589C16.2531 19.1704 16.0567 18.8029 15.9771 18.4029C15.8975 18.0028 15.9384 17.5881 16.0945 17.2112C16.2506 16.8343 16.515 16.5122 16.8541 16.2856C17.1933 16.0589 17.5921 15.938 18 15.938C18.547 15.938 19.0716 16.1553 19.4584 16.5421C19.8452 16.9289 20.0625 17.4535 20.0625 18.0005ZM10.4375 15.938C10.0296 15.938 9.63081 16.0589 9.29164 16.2856C8.95246 16.5122 8.6881 16.8343 8.532 17.2112C8.37589 17.5881 8.33505 18.0028 8.41463 18.4029C8.49421 18.8029 8.69065 19.1704 8.97909 19.4589C9.26754 19.7473 9.63504 19.9438 10.0351 20.0233C10.4352 20.1029 10.8499 20.0621 11.2268 19.906C11.6037 19.7499 11.9258 19.4855 12.1524 19.1463C12.379 18.8072 12.5 18.4084 12.5 18.0005C12.5 17.4535 12.2827 16.9289 11.8959 16.5421C11.5091 16.1553 10.9845 15.938 10.4375 15.938ZM25.5625 15.938C25.1546 15.938 24.7558 16.0589 24.4166 16.2856C24.0775 16.5122 23.8131 16.8343 23.657 17.2112C23.5009 17.5881 23.46 18.0028 23.5396 18.4029C23.6192 18.8029 23.8156 19.1704 24.1041 19.4589C24.3925 19.7473 24.76 19.9438 25.1601 20.0233C25.5602 20.1029 25.9749 20.0621 26.3518 19.906C26.7287 19.7499 27.0508 19.4855 27.2774 19.1463C27.504 18.8072 27.625 18.4084 27.625 18.0005C27.625 17.4535 27.4077 16.9289 27.0209 16.5421C26.6341 16.1553 26.1095 15.938 25.5625 15.938ZM35.875 18.0005C35.8757 21.0866 35.0774 24.1202 33.5577 26.8062C32.0381 29.4922 29.849 31.7391 27.2034 33.328C24.5578 34.9169 21.5459 35.7939 18.4609 35.8734C15.3758 35.953 12.3227 35.2325 9.59875 33.782L3.74641 35.7328C3.26187 35.8944 2.7419 35.9179 2.24478 35.8005C1.74766 35.6832 1.29304 35.4298 0.931869 35.0686C0.570698 34.7074 0.31725 34.2528 0.199933 33.7557C0.0826164 33.2586 0.106067 32.7386 0.267656 32.2541L2.21844 26.4017C0.94338 24.0045 0.231214 21.3482 0.135995 18.6346C0.0407771 15.9211 0.56501 13.2214 1.6689 10.7407C2.77279 8.25998 4.42733 6.06332 6.50692 4.3175C8.58651 2.57167 11.0365 1.32255 13.6709 0.664953C16.3054 0.00735663 19.055 -0.0414336 21.7111 0.522286C24.3672 1.08601 26.8599 2.24742 29.0001 3.91837C31.1404 5.58932 32.8718 7.72588 34.063 10.1659C35.2542 12.6059 35.8739 15.2852 35.875 18.0005ZM33.125 18.0005C33.1243 15.6804 32.5899 13.3915 31.5632 11.311C30.5364 9.23049 29.0447 7.41407 27.2036 6.00229C25.3625 4.5905 23.2212 3.6212 20.9456 3.16936C18.6699 2.71753 16.3208 2.79528 14.0799 3.3966C11.8391 3.99792 9.76666 5.10669 8.02292 6.63712C6.27918 8.16756 4.91089 10.0786 4.02392 12.2225C3.13694 14.3664 2.75506 16.6855 2.90782 19.0006C3.06057 21.3157 3.74387 23.5646 4.90484 25.5733C5.00228 25.7419 5.06279 25.9293 5.08234 26.1231C5.1019 26.3169 5.08006 26.5126 5.01828 26.6974L2.875 33.1255L9.30312 30.9822C9.44314 30.9345 9.59004 30.9101 9.73797 30.91C9.97946 30.9104 10.2166 30.9745 10.4255 31.0956C12.7248 32.426 15.334 33.1273 17.9904 33.1289C20.6469 33.1306 23.257 32.4326 25.558 31.1052C27.859 29.7778 29.7698 27.8677 31.0982 25.5672C32.4266 23.2667 33.1256 20.6569 33.125 18.0005Z" fill="#393B3B"/>
</svg>
