<svg width="20" height="20" viewBox="0 0 20 20" fill="none" xmlns="http://www.w3.org/2000/svg">
<path d="M19.75 9.99991C19.7504 11.6832 19.3149 13.338 18.486 14.803C17.6572 16.2681 16.4631 17.4937 15.02 18.3604C13.577 19.2271 11.9341 19.7054 10.2514 19.7488C8.56863 19.7922 6.9033 19.3992 5.4175 18.608L2.22531 19.6721C1.96102 19.7602 1.6774 19.773 1.40624 19.709C1.13509 19.645 0.887113 19.5068 0.69011 19.3098C0.493108 19.1128 0.354864 18.8648 0.290873 18.5937C0.226882 18.3225 0.239673 18.0389 0.327812 17.7746L1.39187 14.5824C0.696389 13.2748 0.307935 11.826 0.255998 10.3458C0.20406 8.86568 0.490005 7.39316 1.09213 6.04003C1.69425 4.6869 2.59672 3.48873 3.73105 2.53646C4.86537 1.58419 6.20173 0.902854 7.63869 0.544165C9.07565 0.185476 10.5754 0.158863 12.0242 0.466346C13.473 0.773829 14.8327 1.40733 16.0001 2.31875C17.1675 3.23018 18.1119 4.39558 18.7616 5.7265C19.4114 7.05741 19.7494 8.51886 19.75 9.99991Z" fill="white"/>
</svg>
