<svg width="29" height="28" viewBox="0 0 29 28" fill="none" xmlns="http://www.w3.org/2000/svg">
<path d="M22.9165 3.5H5.4165C4.95238 3.5 4.50726 3.68437 4.17907 4.01256C3.85088 4.34075 3.6665 4.78587 3.6665 5.25V22.75C3.6665 23.2141 3.85088 23.6592 4.17907 23.9874C4.50726 24.3156 4.95238 24.5 5.4165 24.5H22.9165C23.3806 24.5 23.8258 24.3156 24.1539 23.9874C24.4821 23.6592 24.6665 23.2141 24.6665 22.75V5.25C24.6665 4.78587 24.4821 4.34075 24.1539 4.01256C23.8258 3.68437 23.3806 3.5 22.9165 3.5ZM20.2915 14.875H15.0415V20.125C15.0415 20.3571 14.9493 20.5796 14.7852 20.7437C14.6211 20.9078 14.3986 21 14.1665 21C13.9344 21 13.7119 20.9078 13.5478 20.7437C13.3837 20.5796 13.2915 20.3571 13.2915 20.125V14.875H8.0415C7.80944 14.875 7.58688 14.7828 7.42279 14.6187C7.25869 14.4546 7.1665 14.2321 7.1665 14C7.1665 13.7679 7.25869 13.5454 7.42279 13.3813C7.58688 13.2172 7.80944 13.125 8.0415 13.125H13.2915V7.875C13.2915 7.64294 13.3837 7.42038 13.5478 7.25628C13.7119 7.09219 13.9344 7 14.1665 7C14.3986 7 14.6211 7.09219 14.7852 7.25628C14.9493 7.42038 15.0415 7.64294 15.0415 7.875V13.125H20.2915C20.5236 13.125 20.7461 13.2172 20.9102 13.3813C21.0743 13.5454 21.1665 13.7679 21.1665 14C21.1665 14.2321 21.0743 14.4546 20.9102 14.6187C20.7461 14.7828 20.5236 14.875 20.2915 14.875Z" fill="#96969C"/>
</svg>
