<svg width="14" height="15" viewBox="0 0 14 15" fill="none" xmlns="http://www.w3.org/2000/svg">
<path d="M13.5282 5.37625L11.5047 11.574C11.4844 11.6365 11.4502 11.6935 11.4048 11.741C11.3594 11.7885 11.3038 11.8251 11.2423 11.8482C11.1808 11.8712 11.1149 11.8801 11.0494 11.8742C10.984 11.8683 10.9207 11.8478 10.8643 11.8141C10.8518 11.8064 9.4534 11.0009 6.99903 11.0009C4.54465 11.0009 3.14629 11.8064 3.13262 11.8146C3.07624 11.848 3.01308 11.8683 2.94781 11.874C2.88254 11.8797 2.81683 11.8706 2.75551 11.8476C2.6942 11.8245 2.63886 11.7879 2.59357 11.7405C2.54829 11.6932 2.51421 11.6363 2.49387 11.574L0.471526 5.37461C0.430779 5.25051 0.427639 5.11713 0.462501 4.99125C0.497364 4.86537 0.568672 4.75261 0.667456 4.66716C0.76624 4.5817 0.888089 4.52736 1.01768 4.51098C1.14726 4.4946 1.2788 4.5169 1.39575 4.57508L4.14051 5.94227L6.43301 2.13274C6.49194 2.03503 6.57512 1.9542 6.67448 1.89809C6.77384 1.84198 6.88601 1.8125 7.00012 1.8125C7.11423 1.8125 7.2264 1.84198 7.32576 1.89809C7.42512 1.9542 7.5083 2.03503 7.56723 2.13274L9.85973 5.94227L12.6056 4.57508C12.7227 4.51681 12.8544 4.49454 12.9841 4.51108C13.1138 4.52762 13.2358 4.58223 13.3345 4.66801C13.4332 4.75379 13.5043 4.8669 13.5387 4.99305C13.5732 5.1192 13.5695 5.25274 13.5282 5.3768V5.37625Z" fill="#222222"/>
</svg>
