<svg xmlns="http://www.w3.org/2000/svg" width="32" height="32" viewBox="0 0 32 32" fill="#f8f8f8"><path fill="inherit" d="M30.48 9.523a1.51 1.51 0 0 0-1.668-.212l-6.276 3.125-5.24-8.704a1.514 1.514 0 0 0-2.592 0l-5.24 8.707L3.19 9.315a1.514 1.514 0 0 0-2.113 1.825l4.625 14.17a1 1 0 0 0 1.46.55C7.194 25.841 10.39 24 16 24c5.61 0 8.806 1.842 8.835 1.86a.999.999 0 0 0 1.464-.55l4.625-14.166a1.508 1.508 0 0 0-.444-1.62Zm-5.73 14.08C23.25 22.967 20.26 22 16 22s-7.25.968-8.75 1.604L3.339 11.624l5.633 2.81a1.521 1.521 0 0 0 1.973-.574L16 5.457l5.055 8.4a1.521 1.521 0 0 0 1.971.574l5.635-2.806-3.911 11.978Z"/></svg>