<svg xmlns="http://www.w3.org/2000/svg" width="20" height="20" fill="none"><path fill="#fff" d="m18.736 12.266-.938-7.5a1.875 1.875 0 0 0-1.86-1.641H2.5a1.25 1.25 0 0 0-1.25 1.25v6.875A1.25 1.25 0 0 0 2.5 12.5h3.364l2.952 5.905a.625.625 0 0 0 .559.345 3.125 3.125 0 0 0 3.125-3.125v-1.25h4.375a1.874 1.874 0 0 0 1.86-2.11ZM5.625 11.25H2.5V4.375h3.125v6.875Zm11.719 1.663a.615.615 0 0 1-.469.212h-5a.624.624 0 0 0-.625.625v1.875a1.876 1.876 0 0 1-1.507 1.84l-2.868-5.738V4.375h9.063a.625.625 0 0 1 .62.547l.937 7.5a.616.616 0 0 1-.151.491Z"/></svg>