<svg width="33" height="32" viewBox="0 0 33 32" fill="#fff" xmlns="http://www.w3.org/2000/svg">
<path d="M31.2868 15.595C31.243 15.4963 30.1843 13.1475 27.8305 10.7937C24.6943 7.6575 20.733 6 16.373 6C12.013 6 8.05178 7.6575 4.91553 10.7937C2.56178 13.1475 1.49803 15.5 1.45928 15.595C1.40243 15.7229 1.37305 15.8613 1.37305 16.0012C1.37305 16.1412 1.40243 16.2796 1.45928 16.4075C1.50303 16.5062 2.56178 18.8538 4.91553 21.2075C8.05178 24.3425 12.013 26 16.373 26C20.733 26 24.6943 24.3425 27.8305 21.2075C30.1843 18.8538 31.243 16.5062 31.2868 16.4075C31.3436 16.2796 31.373 16.1412 31.373 16.0012C31.373 15.8613 31.3436 15.7229 31.2868 15.595ZM16.373 24C12.5255 24 9.16428 22.6012 6.38178 19.8438C5.24009 18.7084 4.26877 17.4137 3.49803 16C4.26856 14.5862 5.23991 13.2915 6.38178 12.1562C9.16428 9.39875 12.5255 8 16.373 8C20.2205 8 23.5818 9.39875 26.3643 12.1562C27.5082 13.2912 28.4816 14.5859 29.2543 16C28.353 17.6825 24.4268 24 16.373 24ZM16.373 10C15.1863 10 14.0263 10.3519 13.0396 11.0112C12.0529 11.6705 11.2839 12.6075 10.8298 13.7039C10.3756 14.8003 10.2568 16.0067 10.4883 17.1705C10.7198 18.3344 11.2913 19.4035 12.1304 20.2426C12.9695 21.0818 14.0386 21.6532 15.2025 21.8847C16.3664 22.1162 17.5728 21.9974 18.6691 21.5433C19.7655 21.0892 20.7026 20.3201 21.3619 19.3334C22.0211 18.3467 22.373 17.1867 22.373 16C22.3714 14.4092 21.7387 12.884 20.6138 11.7592C19.489 10.6343 17.9638 10.0017 16.373 10ZM16.373 20C15.5819 20 14.8086 19.7654 14.1508 19.3259C13.493 18.8864 12.9803 18.2616 12.6775 17.5307C12.3748 16.7998 12.2956 15.9956 12.4499 15.2196C12.6042 14.4437 12.9852 13.731 13.5446 13.1716C14.104 12.6122 14.8168 12.2312 15.5927 12.0769C16.3686 11.9225 17.1729 12.0017 17.9038 12.3045C18.6347 12.6072 19.2594 13.1199 19.6989 13.7777C20.1384 14.4355 20.373 15.2089 20.373 16C20.373 17.0609 19.9516 18.0783 19.2015 18.8284C18.4513 19.5786 17.4339 20 16.373 20Z" fill="inherit"/>
</svg>
