<svg width="20" height="20" viewBox="0 0 20 20" fill="none" xmlns="http://www.w3.org/2000/svg">
<path d="M18.8 10.209C18.8 9.55898 18.7417 8.93398 18.6333 8.33398H10V11.884H14.9333C14.7167 13.0257 14.0667 13.9923 13.0917 14.6423V16.9507H16.0667C17.8 15.3507 18.8 13.0007 18.8 10.209Z" fill="#4285F4"/>
<path d="M9.99974 19.1667C12.4747 19.1667 14.5497 18.35 16.0664 16.95L13.0914 14.6417C12.2747 15.1917 11.2331 15.525 9.99974 15.525C7.61641 15.525 5.59141 13.9167 4.86641 11.75H1.81641V14.1167C3.32474 17.1083 6.41641 19.1667 9.99974 19.1667Z" fill="#34A853"/>
<path d="M4.86634 11.7426C4.68301 11.1926 4.57467 10.6092 4.57467 10.0009C4.57467 9.39258 4.68301 8.80924 4.86634 8.25924V5.89258H1.81634C1.19134 7.12591 0.833008 8.51758 0.833008 10.0009C0.833008 11.4842 1.19134 12.8759 1.81634 14.1092L4.19134 12.2592L4.86634 11.7426Z" fill="#FBBC05"/>
<path d="M9.99974 4.48398C11.3497 4.48398 12.5497 4.95065 13.5081 5.85065L16.1331 3.22565C14.5414 1.74232 12.4747 0.833984 9.99974 0.833984C6.41641 0.833984 3.32474 2.89232 1.81641 5.89232L4.86641 8.25898C5.59141 6.09232 7.61641 4.48398 9.99974 4.48398Z" fill="#EA4335"/>
</svg>
