<svg width="33" height="32" viewBox="0 0 33 32" fill="#ddd" xmlns="http://www.w3.org/2000/svg">
<path d="M30.373 11.75C30.373 20.5 17.3993 27.5825 16.8468 27.875C16.7012 27.9533 16.5384 27.9943 16.373 27.9943C16.2077 27.9943 16.0449 27.9533 15.8993 27.875C15.3468 27.5825 2.37305 20.5 2.37305 11.75C2.37536 9.69528 3.19262 7.72539 4.64553 6.27248C6.09843 4.81958 8.06833 4.00232 10.123 4C12.7043 4 14.9643 5.11 16.373 6.98625C17.7818 5.11 20.0418 4 22.623 4C24.6778 4.00232 26.6477 4.81958 28.1006 6.27248C29.5535 7.72539 30.3707 9.69528 30.373 11.75Z" fill="inherit"/>
</svg>
