<svg width="33" height="32" viewBox="0 0 33 32" fill="#ddd" xmlns="http://www.w3.org/2000/svg">
<path d="M22.623 4C20.0418 4 17.7818 5.11 16.373 6.98625C14.9643 5.11 12.7043 4 10.123 4C8.06833 4.00232 6.09843 4.81958 4.64553 6.27248C3.19262 7.72539 2.37536 9.69528 2.37305 11.75C2.37305 20.5 15.3468 27.5825 15.8993 27.875C16.0449 27.9533 16.2077 27.9943 16.373 27.9943C16.5384 27.9943 16.7012 27.9533 16.8468 27.875C17.3993 27.5825 30.373 20.5 30.373 11.75C30.3707 9.69528 29.5535 7.72539 28.1006 6.27248C26.6477 4.81958 24.6778 4.00232 22.623 4ZM16.373 25.85C14.0905 24.52 4.37305 18.4613 4.37305 11.75C4.37503 10.2256 4.98147 8.76423 6.05937 7.68633C7.13728 6.60842 8.59866 6.00198 10.123 6C12.5543 6 14.5955 7.295 15.448 9.375C15.5234 9.55841 15.6516 9.71528 15.8163 9.82569C15.981 9.93609 16.1748 9.99503 16.373 9.99503C16.5713 9.99503 16.7651 9.93609 16.9298 9.82569C17.0945 9.71528 17.2227 9.55841 17.298 9.375C18.1505 7.29125 20.1918 6 22.623 6C24.1474 6.00198 25.6088 6.60842 26.6867 7.68633C27.7646 8.76423 28.3711 10.2256 28.373 11.75C28.373 18.4513 18.653 24.5188 16.373 25.85Z" fill="inherit"/>
</svg>
