<svg width="33" height="32" viewBox="0 0 33 32" fill="currentColor" xmlns="http://www.w3.org/2000/svg">
<path d="M28.5 14.4436V25.9998C28.5 26.5303 28.2893 27.039 27.9142 27.414C27.5391 27.7891 27.0304 27.9998 26.5 27.9998H21.5C20.9696 27.9998 20.4609 27.7891 20.0858 27.414C19.7107 27.039 19.5 26.5303 19.5 25.9998V20.9998C19.5 20.7346 19.3946 20.4803 19.2071 20.2927C19.0196 20.1052 18.7652 19.9998 18.5 19.9998H14.5C14.2348 19.9998 13.9804 20.1052 13.7929 20.2927C13.6054 20.4803 13.5 20.7346 13.5 20.9998V25.9998C13.5 26.5303 13.2893 27.039 12.9142 27.414C12.5391 27.7891 12.0304 27.9998 11.5 27.9998H6.5C5.96957 27.9998 5.46086 27.7891 5.08579 27.414C4.71071 27.039 4.5 26.5303 4.5 25.9998V14.4436C4.49996 14.1668 4.55737 13.893 4.66861 13.6395C4.77985 13.3861 4.9425 13.1584 5.14625 12.9711L15.1462 3.53608L15.16 3.52233C15.5282 3.18749 16.008 3.00195 16.5056 3.00195C17.0033 3.00195 17.4831 3.18749 17.8512 3.52233C17.8555 3.52722 17.8601 3.53181 17.865 3.53608L27.865 12.9711C28.0667 13.1594 28.2273 13.3875 28.3365 13.6409C28.4458 13.8943 28.5015 14.1676 28.5 14.4436Z" fill="inherit"/>
</svg>
