<svg width="33" height="32" viewBox="0 0 33 32" fill="none" xmlns="http://www.w3.org/2000/svg">
<path d="M27.8538 12.9711L17.8538 3.53608C17.8489 3.53181 17.8443 3.52722 17.84 3.52233C17.4718 3.18749 16.992 3.00195 16.4944 3.00195C15.9967 3.00195 15.5169 3.18749 15.1488 3.52233L15.135 3.53608L5.14625 12.9711C4.9425 13.1584 4.77985 13.3861 4.66861 13.6395C4.55737 13.893 4.49996 14.1668 4.5 14.4436V25.9998C4.5 26.5303 4.71071 27.039 5.08579 27.414C5.46086 27.7891 5.96957 27.9998 6.5 27.9998H12.5C13.0304 27.9998 13.5391 27.7891 13.9142 27.414C14.2893 27.039 14.5 26.5303 14.5 25.9998V19.9998H18.5V25.9998C18.5 26.5303 18.7107 27.039 19.0858 27.414C19.4609 27.7891 19.9696 27.9998 20.5 27.9998H26.5C27.0304 27.9998 27.5391 27.7891 27.9142 27.414C28.2893 27.039 28.5 26.5303 28.5 25.9998V14.4436C28.5 14.1668 28.4426 13.893 28.3314 13.6395C28.2201 13.3861 28.0575 13.1584 27.8538 12.9711ZM26.5 25.9998H20.5V19.9998C20.5 19.4694 20.2893 18.9607 19.9142 18.5856C19.5391 18.2105 19.0304 17.9998 18.5 17.9998H14.5C13.9696 17.9998 13.4609 18.2105 13.0858 18.5856C12.7107 18.9607 12.5 19.4694 12.5 19.9998V25.9998H6.5V14.4436L6.51375 14.4311L16.5 4.99983L26.4875 14.4286L26.5012 14.4411L26.5 25.9998Z" fill="white"/>
</svg>
