<svg xmlns="http://www.w3.org/2000/svg" width="20" height="20" viewBox="0 0 20 20" fill="#fff"><path fill="inherit" d="M18.281 6.26a1.874 1.874 0 0 0-1.406-.635H12.5v-1.25A3.125 3.125 0 0 0 9.375 1.25a.625.625 0 0 0-.56.345L5.866 7.5H2.5a1.25 1.25 0 0 0-1.25 1.25v6.875a1.25 1.25 0 0 0 1.25 1.25h13.438a1.875 1.875 0 0 0 1.86-1.64l.938-7.5a1.874 1.874 0 0 0-.455-1.476ZM2.5 8.75h3.125v6.875H2.5V8.75Zm14.995-1.172-.937 7.5a.624.624 0 0 1-.62.547H6.874V8.273l2.868-5.737a1.875 1.875 0 0 1 1.507 1.839V6.25a.625.625 0 0 0 .625.625h5a.625.625 0 0 1 .62.703Z"/></svg>