<svg width="40" height="34" viewBox="0 0 40 34" fill="none" xmlns="http://www.w3.org/2000/svg">
<path d="M28.5938 0.5C25.0445 0.5 21.937 2.02625 20 4.60609C18.063 2.02625 14.9555 0.5 11.4062 0.5C8.58101 0.503184 5.87241 1.62692 3.87466 3.62466C1.87692 5.62241 0.753184 8.33101 0.75 11.1562C0.75 23.1875 18.5889 32.9259 19.3486 33.3281C19.5488 33.4358 19.7726 33.4922 20 33.4922C20.2274 33.4922 20.4512 33.4358 20.6514 33.3281C21.4111 32.9259 39.25 23.1875 39.25 11.1562C39.2468 8.33101 38.1231 5.62241 36.1253 3.62466C34.1276 1.62692 31.419 0.503184 28.5938 0.5ZM20 30.5438C16.8616 28.715 3.5 20.3842 3.5 11.1562C3.50273 9.06022 4.33658 7.05082 5.8187 5.5687C7.30082 4.08658 9.31022 3.25273 11.4062 3.25C14.7492 3.25 17.5559 5.03063 18.7281 7.89062C18.8317 8.14281 19.0079 8.35852 19.2344 8.51032C19.4609 8.66212 19.7274 8.74317 20 8.74317C20.2726 8.74317 20.5391 8.66212 20.7656 8.51032C20.9921 8.35852 21.1683 8.14281 21.2719 7.89062C22.4441 5.02547 25.2508 3.25 28.5938 3.25C30.6898 3.25273 32.6992 4.08658 34.1813 5.5687C35.6634 7.05082 36.4973 9.06022 36.5 11.1562C36.5 20.3705 23.135 28.7133 20 30.5438Z" fill="#393B3B"/>
</svg>
