<svg width="33" height="32" viewBox="0 0 33 32" fill="#ddd" xmlns="http://www.w3.org/2000/svg">
<path d="M26.373 10H22.373V7C22.373 5.4087 21.7409 3.88258 20.6157 2.75736C19.4905 1.63214 17.9643 1 16.373 1C14.7817 1 13.2556 1.63214 12.1304 2.75736C11.0052 3.88258 10.373 5.4087 10.373 7V10H6.37305C5.84261 10 5.33391 10.2107 4.95883 10.5858C4.58376 10.9609 4.37305 11.4696 4.37305 12V26C4.37305 26.5304 4.58376 27.0391 4.95883 27.4142C5.33391 27.7893 5.84261 28 6.37305 28H26.373C26.9035 28 27.4122 27.7893 27.7873 27.4142C28.1623 27.0391 28.373 26.5304 28.373 26V12C28.373 11.4696 28.1623 10.9609 27.7873 10.5858C27.4122 10.2107 26.9035 10 26.373 10ZM12.373 7C12.373 5.93913 12.7945 4.92172 13.5446 4.17157C14.2948 3.42143 15.3122 3 16.373 3C17.4339 3 18.4513 3.42143 19.2015 4.17157C19.9516 4.92172 20.373 5.93913 20.373 7V10H12.373V7ZM26.373 26H6.37305V12H26.373V26Z" fill="inherit"/>
</svg>
