<svg width="34" height="34" viewBox="0 0 34 34" fill="none" xmlns="http://www.w3.org/2000/svg">
<path d="M30.75 0.5H8.75C8.02065 0.5 7.32118 0.789731 6.80546 1.30546C6.28973 1.82118 6 2.52065 6 3.25V6H3.25C2.52065 6 1.82118 6.28973 1.30546 6.80546C0.789731 7.32118 0.5 8.02065 0.5 8.75V30.75C0.5 31.4793 0.789731 32.1788 1.30546 32.6945C1.82118 33.2103 2.52065 33.5 3.25 33.5H25.25C25.9793 33.5 26.6788 33.2103 27.1945 32.6945C27.7103 32.1788 28 31.4793 28 30.75V28H30.75C31.4793 28 32.1788 27.7103 32.6945 27.1945C33.2103 26.6788 33.5 25.9793 33.5 25.25V3.25C33.5 2.52065 33.2103 1.82118 32.6945 1.30546C32.1788 0.789731 31.4793 0.5 30.75 0.5ZM8.75 3.25H30.75V15.1747L27.8797 12.3044C27.364 11.789 26.6648 11.4996 25.9358 11.4996C25.2067 11.4996 24.5075 11.789 23.9919 12.3044L11.048 25.25H8.75V3.25ZM25.25 30.75H3.25V8.75H6V25.25C6 25.9793 6.28973 26.6788 6.80546 27.1945C7.32118 27.7103 8.02065 28 8.75 28H25.25V30.75ZM30.75 25.25H14.9375L25.9375 14.25L30.75 19.0625V25.25ZM15.625 14.25C16.4408 14.25 17.2384 14.0081 17.9167 13.5548C18.5951 13.1016 19.1238 12.4573 19.436 11.7036C19.7482 10.9498 19.8299 10.1204 19.6707 9.32025C19.5116 8.52008 19.1187 7.78508 18.5418 7.20818C17.9649 6.63129 17.2299 6.23842 16.4297 6.07926C15.6296 5.9201 14.8002 6.00179 14.0464 6.314C13.2927 6.62621 12.6484 7.15492 12.1952 7.83327C11.7419 8.51163 11.5 9.30915 11.5 10.125C11.5 11.219 11.9346 12.2682 12.7082 13.0418C13.4818 13.8154 14.531 14.25 15.625 14.25ZM15.625 8.75C15.8969 8.75 16.1628 8.83064 16.3889 8.98173C16.615 9.13282 16.7913 9.34756 16.8953 9.59881C16.9994 9.85006 17.0266 10.1265 16.9736 10.3932C16.9205 10.66 16.7896 10.905 16.5973 11.0973C16.405 11.2896 16.16 11.4205 15.8932 11.4736C15.6265 11.5266 15.3501 11.4994 15.0988 11.3953C14.8476 11.2913 14.6328 11.115 14.4817 10.8889C14.3306 10.6628 14.25 10.3969 14.25 10.125C14.25 9.76033 14.3949 9.41059 14.6527 9.15273C14.9106 8.89487 15.2603 8.75 15.625 8.75Z" fill="#393B3B"/>
</svg>
