<svg xmlns="http://www.w3.org/2000/svg" width="12" height="18" fill="none"><path fill="#EBEBF5" fill-opacity=".6" d="M6.065 11.722c1.652 0 2.764-1.237 2.764-3.005V3.164C8.83 1.388 7.717.16 6.065.16c-1.66 0-2.773 1.229-2.773 3.005v5.553c0 1.768 1.113 3.005 2.773 3.005ZM.122 8.85c0 3.254 2.15 5.537 5.312 5.802v1.934h-3.08a.63.63 0 0 0-.63.631c0 .349.282.623.63.623h7.413c.349 0 .63-.274.63-.623a.63.63 0 0 0-.63-.63h-3.08v-1.935C9.858 14.387 12 12.104 12 8.85V7.165a.617.617 0 0 0-.623-.623.624.624 0 0 0-.63.623V8.8c0 2.83-1.843 4.707-4.682 4.707-2.847 0-4.69-1.876-4.69-4.707V7.165a.618.618 0 0 0-.63-.623.617.617 0 0 0-.623.623V8.85Z"/></svg>