<svg width="48" height="48" viewBox="0 0 48 48" fill="none" xmlns="http://www.w3.org/2000/svg">
<path d="M31.0612 37.9396C31.2006 38.079 31.3111 38.2444 31.3865 38.4265C31.462 38.6086 31.5008 38.8037 31.5008 39.0008C31.5008 39.1979 31.462 39.3931 31.3865 39.5752C31.3111 39.7573 31.2006 39.9227 31.0612 40.0621C30.9218 40.2015 30.7564 40.312 30.5743 40.3874C30.3922 40.4628 30.1971 40.5017 30 40.5017C29.8029 40.5017 29.6077 40.4628 29.4256 40.3874C29.2435 40.312 29.0781 40.2015 28.9387 40.0621L13.9387 25.0621C13.7992 24.9228 13.6886 24.7573 13.6131 24.5752C13.5376 24.3931 13.4988 24.198 13.4988 24.0008C13.4988 23.8037 13.5376 23.6085 13.6131 23.4264C13.6886 23.2443 13.7992 23.0789 13.9387 22.9396L28.9387 7.93958C29.2202 7.65812 29.6019 7.5 30 7.5C30.398 7.5 30.7797 7.65812 31.0612 7.93958C31.3427 8.22105 31.5008 8.60279 31.5008 9.00083C31.5008 9.39888 31.3427 9.78062 31.0612 10.0621L17.1206 24.0008L31.0612 37.9396Z" fill="white"/>
</svg>
