<svg width="33" height="32" viewBox="0 0 33 32" fill="#fff" xmlns="http://www.w3.org/2000/svg">
<path d="M16.3731 3C13.8019 3 11.2885 3.76244 9.15064 5.1909C7.0128 6.61935 5.34656 8.64968 4.36262 11.0251C3.37868 13.4006 3.12124 16.0144 3.62284 18.5362C4.12445 21.0579 5.36258 23.3743 7.18066 25.1924C8.99875 27.0105 11.3151 28.2486 13.8369 28.7502C16.3586 29.2518 18.9725 28.9944 21.3479 28.0104C23.7234 27.0265 25.7537 25.3603 27.1822 23.2224C28.6106 21.0846 29.3731 18.5712 29.3731 16C29.3694 12.5533 27.9986 9.24882 25.5614 6.81163C23.1242 4.37445 19.8197 3.00364 16.3731 3ZM9.63305 24.6875C10.3565 23.5561 11.3531 22.625 12.531 21.9801C13.7088 21.3351 15.0301 20.9971 16.3731 20.9971C17.716 20.9971 19.0373 21.3351 20.2152 21.9801C21.393 22.625 22.3896 23.5561 23.1131 24.6875C21.186 26.1862 18.8143 26.9999 16.3731 26.9999C13.9318 26.9999 11.5601 26.1862 9.63305 24.6875ZM12.3731 15C12.3731 14.2089 12.6076 13.4355 13.0472 12.7777C13.4867 12.1199 14.1114 11.6072 14.8423 11.3045C15.5732 11.0017 16.3775 10.9225 17.1534 11.0769C17.9293 11.2312 18.6421 11.6122 19.2015 12.1716C19.7609 12.731 20.1419 13.4437 20.2962 14.2196C20.4505 14.9956 20.3713 15.7998 20.0686 16.5307C19.7658 17.2616 19.2531 17.8864 18.5953 18.3259C17.9375 18.7654 17.1642 19 16.3731 19C15.3122 19 14.2948 18.5786 13.5446 17.8284C12.7945 17.0783 12.3731 16.0609 12.3731 15ZM24.5931 23.3013C23.4778 21.6851 21.9095 20.4348 20.0856 19.7075C21.0653 18.9358 21.7803 17.878 22.131 16.6811C22.4817 15.4843 22.4507 14.2079 22.0423 13.0294C21.634 11.851 20.8685 10.8291 19.8525 10.1059C18.8364 9.38262 17.6202 8.99397 16.3731 8.99397C15.1259 8.99397 13.9097 9.38262 12.8936 10.1059C11.8776 10.8291 11.1121 11.851 10.7038 13.0294C10.2954 14.2079 10.2644 15.4843 10.6151 16.6811C10.9658 17.878 11.6808 18.9358 12.6606 19.7075C10.8366 20.4348 9.26834 21.6851 8.15305 23.3013C6.74376 21.7165 5.82264 19.7581 5.50061 17.6619C5.17858 15.5657 5.46936 13.4211 6.33795 11.4864C7.20654 9.55163 8.61589 7.90922 10.3963 6.75692C12.1767 5.60462 14.2523 4.99156 16.3731 4.99156C18.4938 4.99156 20.5694 5.60462 22.3498 6.75692C24.1302 7.90922 25.5396 9.55163 26.4082 11.4864C27.2767 13.4211 27.5675 15.5657 27.2455 17.6619C26.9235 19.7581 26.0023 21.7165 24.5931 23.3013Z" fill="inherit"/>
</svg>
