<svg xmlns="http://www.w3.org/2000/svg" width="121" height="120" viewBox="0 0 121 120" fill="#ddd"><path fill="inherit" d="M101.75 18.75h-82.5a7.5 7.5 0 0 0-7.5 7.5v67.5a7.5 7.5 0 0 0 7.5 7.5h82.5a7.498 7.498 0 0 0 7.5-7.5v-67.5a7.498 7.498 0 0 0-7.5-7.5Zm0 7.5v48.164L89.53 62.198a7.5 7.5 0 0 0-10.608 0l-9.375 9.375-20.625-20.625a7.5 7.5 0 0 0-10.603 0L19.25 70.018V26.25h82.5Zm-82.5 54.375L43.625 56.25l37.5 37.5H19.25V80.625Zm82.5 13.125H91.733L74.858 76.875l9.375-9.375 17.517 17.522v8.728ZM68 46.875a5.625 5.625 0 1 1 11.25 0 5.625 5.625 0 0 1-11.25 0Z" opacity=".5"/></svg>