<svg width="29" height="28" viewBox="0 0 29 28" fill="none" xmlns="http://www.w3.org/2000/svg">
<path d="M19.3125 13.125C19.3125 14.0768 19.0303 15.0073 18.5015 15.7987C17.9726 16.5901 17.221 17.2069 16.3417 17.5712C15.4623 17.9354 14.4947 18.0307 13.5611 17.845C12.6276 17.6593 11.7701 17.201 11.0971 16.528C10.424 15.8549 9.96567 14.9974 9.77998 14.0639C9.59429 13.1303 9.68959 12.1627 10.0538 11.2833C10.4181 10.404 11.0349 9.65236 11.8263 9.12355C12.6177 8.59475 13.5482 8.3125 14.5 8.3125C15.7759 8.31395 16.9992 8.82144 17.9014 9.72365C18.8036 10.6259 19.3111 11.8491 19.3125 13.125ZM25.875 14C25.875 16.2498 25.2079 18.449 23.958 20.3196C22.7081 22.1902 20.9315 23.6482 18.853 24.5091C16.7745 25.3701 14.4874 25.5953 12.2809 25.1564C10.0743 24.7175 8.04749 23.6342 6.45667 22.0433C4.86584 20.4525 3.78248 18.4257 3.34357 16.2192C2.90467 14.0126 3.12993 11.7255 3.99088 9.64698C4.85182 7.56847 6.30978 5.79193 8.18039 4.54203C10.051 3.29213 12.2502 2.625 14.5 2.625C17.5159 2.62818 20.4073 3.82764 22.5398 5.96018C24.6724 8.09271 25.8718 10.9841 25.875 14ZM24.125 14C24.1236 12.7045 23.861 11.4226 23.3528 10.2309C22.8446 9.03922 22.1013 7.96227 21.1673 7.06446C20.2333 6.16665 19.1279 5.4664 17.9171 5.00561C16.7063 4.54482 15.415 4.33295 14.1205 4.38266C8.96891 4.58172 4.86079 8.8725 4.87501 14.0273C4.87994 16.374 5.74544 18.6374 7.30751 20.3886C7.94366 19.4659 8.75174 18.6745 9.6875 18.0578C9.76729 18.0051 9.86214 17.98 9.95754 17.9863C10.0529 17.9927 10.1437 18.0301 10.2158 18.0928C11.4049 19.1213 12.9245 19.6873 14.4967 19.6873C16.0689 19.6873 17.5886 19.1213 18.7777 18.0928C18.8498 18.0301 18.9405 17.9927 19.0359 17.9863C19.1313 17.98 19.2262 18.0051 19.3059 18.0578C20.2429 18.6742 21.0521 19.4656 21.6892 20.3886C23.259 18.631 24.1262 16.3566 24.125 14Z" fill="#96969C"/>
</svg>
