<svg xmlns="http://www.w3.org/2000/svg" width="21" height="20" viewBox="0 0 21 20" fill="#ddd"><path fill="inherit" d="M11.438 14.063a.937.937 0 1 1-1.875 0 .937.937 0 0 1 1.874 0ZM10.5 5.624c-1.723 0-3.125 1.262-3.125 2.813v.312a.625.625 0 0 0 1.25 0v-.313c0-.859.841-1.562 1.875-1.562s1.875.703 1.875 1.563c0 .859-.841 1.562-1.875 1.562a.624.624 0 0 0-.625.625v.625a.625.625 0 1 0 1.25 0v-.056c1.425-.262 2.5-1.399 2.5-2.757 0-1.55-1.402-2.812-3.125-2.812ZM18.625 10A8.125 8.125 0 1 1 10.5 1.875 8.133 8.133 0 0 1 18.625 10Zm-1.25 0a6.875 6.875 0 1 0-6.875 6.875A6.883 6.883 0 0 0 17.375 10Z"/></svg>