<svg width="33" height="32" viewBox="0 0 33 32" fill="#ddd" xmlns="http://www.w3.org/2000/svg">
<path d="M28.6055 12.8525C28.1343 12.36 27.6468 11.8525 27.463 11.4062C27.293 10.9975 27.283 10.32 27.273 9.66375C27.2543 8.44375 27.2343 7.06125 26.273 6.1C25.3118 5.13875 23.9293 5.11875 22.7093 5.1C22.053 5.09 21.3755 5.08 20.9668 4.91C20.5218 4.72625 20.013 4.23875 19.5205 3.7675C18.658 2.93875 17.678 2 16.373 2C15.068 2 14.0893 2.93875 13.2255 3.7675C12.733 4.23875 12.2255 4.72625 11.7793 4.91C11.373 5.08 10.693 5.09 10.0368 5.1C8.8168 5.11875 7.4343 5.13875 6.47305 6.1C5.5118 7.06125 5.49805 8.44375 5.47305 9.66375C5.46305 10.32 5.45305 10.9975 5.28305 11.4062C5.0993 11.8512 4.6118 12.36 4.14055 12.8525C3.3118 13.715 2.37305 14.695 2.37305 16C2.37305 17.305 3.3118 18.2837 4.14055 19.1475C4.6118 19.64 5.0993 20.1475 5.28305 20.5938C5.45305 21.0025 5.46305 21.68 5.47305 22.3363C5.4918 23.5562 5.5118 24.9387 6.47305 25.9C7.4343 26.8612 8.8168 26.8813 10.0368 26.9C10.693 26.91 11.3705 26.92 11.7793 27.09C12.2243 27.2738 12.733 27.7612 13.2255 28.2325C14.088 29.0613 15.068 30 16.373 30C17.678 30 18.6568 29.0613 19.5205 28.2325C20.013 27.7612 20.5205 27.2738 20.9668 27.09C21.3755 26.92 22.053 26.91 22.7093 26.9C23.9293 26.8813 25.3118 26.8612 26.273 25.9C27.2343 24.9387 27.2543 23.5562 27.273 22.3363C27.283 21.68 27.293 21.0025 27.463 20.5938C27.6468 20.1488 28.1343 19.64 28.6055 19.1475C29.4343 18.285 30.373 17.305 30.373 16C30.373 14.695 29.4343 13.7162 28.6055 12.8525ZM27.1618 17.7638C26.563 18.3888 25.943 19.035 25.6143 19.8288C25.2993 20.5913 25.2855 21.4625 25.273 22.3062C25.2605 23.1812 25.2468 24.0975 24.858 24.485C24.4693 24.8725 23.5593 24.8875 22.6793 24.9C21.8355 24.9125 20.9643 24.9262 20.2018 25.2412C19.408 25.57 18.7618 26.19 18.1368 26.7887C17.5118 27.3875 16.873 28 16.373 28C15.873 28 15.2293 27.385 14.6093 26.7887C13.9893 26.1925 13.338 25.57 12.5443 25.2412C11.7818 24.9262 10.9105 24.9125 10.0668 24.9C9.1918 24.8875 8.27555 24.8738 7.88805 24.485C7.50055 24.0963 7.48555 23.1862 7.47305 22.3062C7.46055 21.4625 7.4468 20.5913 7.1318 19.8288C6.80305 19.035 6.18305 18.3888 5.5843 17.7638C4.98555 17.1388 4.37305 16.5 4.37305 16C4.37305 15.5 4.98805 14.8562 5.5843 14.2362C6.18055 13.6163 6.80305 12.965 7.1318 12.1713C7.4468 11.4088 7.46055 10.5375 7.47305 9.69375C7.48555 8.81875 7.4993 7.9025 7.88805 7.515C8.2768 7.1275 9.1868 7.1125 10.0668 7.1C10.9105 7.0875 11.7818 7.07375 12.5443 6.75875C13.338 6.43 13.9843 5.81 14.6093 5.21125C15.2343 4.6125 15.873 4 16.373 4C16.873 4 17.5168 4.615 18.1368 5.21125C18.7568 5.8075 19.408 6.43 20.2018 6.75875C20.9643 7.07375 21.8355 7.0875 22.6793 7.1C23.5543 7.1125 24.4705 7.12625 24.858 7.515C25.2455 7.90375 25.2605 8.81375 25.273 9.69375C25.2855 10.5375 25.2993 11.4088 25.6143 12.1713C25.943 12.965 26.563 13.6112 27.1618 14.2362C27.7605 14.8612 28.373 15.5 28.373 16C28.373 16.5 27.758 17.1438 27.1618 17.7638ZM17.873 22.5C17.873 22.7967 17.7851 23.0867 17.6203 23.3334C17.4554 23.58 17.2212 23.7723 16.9471 23.8858C16.673 23.9993 16.3714 24.0291 16.0804 23.9712C15.7894 23.9133 15.5222 23.7704 15.3124 23.5607C15.1026 23.3509 14.9597 23.0836 14.9019 22.7926C14.844 22.5017 14.8737 22.2001 14.9872 21.926C15.1008 21.6519 15.293 21.4176 15.5397 21.2528C15.7864 21.088 16.0764 21 16.373 21C16.7709 21 17.1524 21.158 17.4337 21.4393C17.715 21.7206 17.873 22.1022 17.873 22.5ZM21.373 13.5C21.373 15.6725 19.653 17.4913 17.373 17.91V18C17.373 18.2652 17.2677 18.5196 17.0802 18.7071C16.8926 18.8946 16.6383 19 16.373 19C16.1078 19 15.8535 18.8946 15.6659 18.7071C15.4784 18.5196 15.373 18.2652 15.373 18V17C15.373 16.7348 15.4784 16.4804 15.6659 16.2929C15.8535 16.1054 16.1078 16 16.373 16C18.0268 16 19.373 14.875 19.373 13.5C19.373 12.125 18.0268 11 16.373 11C14.7193 11 13.373 12.125 13.373 13.5V14C13.373 14.2652 13.2677 14.5196 13.0802 14.7071C12.8926 14.8946 12.6383 15 12.373 15C12.1078 15 11.8535 14.8946 11.6659 14.7071C11.4784 14.5196 11.373 14.2652 11.373 14V13.5C11.373 11.0188 13.6155 9 16.373 9C19.1305 9 21.373 11.0188 21.373 13.5Z" fill="inherit"/>
</svg>
