<svg width="36" height="36" viewBox="0 0 36 36" fill="none" xmlns="http://www.w3.org/2000/svg">
<rect x="0.5" y="0.5" width="35" height="35" rx="17.5" stroke="#525856"/>
<path d="M24.067 23.1832C24.1251 23.2412 24.1712 23.3102 24.2026 23.386C24.234 23.4619 24.2502 23.5432 24.2502 23.6253C24.2502 23.7075 24.234 23.7888 24.2026 23.8647C24.1712 23.9405 24.1251 24.0095 24.067 24.0675C24.009 24.1256 23.94 24.1717 23.8642 24.2031C23.7883 24.2345 23.707 24.2507 23.6249 24.2507C23.5427 24.2507 23.4614 24.2345 23.3855 24.2031C23.3097 24.1717 23.2407 24.1256 23.1827 24.0675L17.9999 18.8839L12.817 24.0675C12.6998 24.1848 12.5407 24.2507 12.3749 24.2507C12.209 24.2507 12.0499 24.1848 11.9327 24.0675C11.8154 23.9503 11.7495 23.7912 11.7495 23.6253C11.7495 23.4595 11.8154 23.3004 11.9327 23.1832L17.1163 18.0003L11.9327 12.8175C11.8154 12.7003 11.7495 12.5412 11.7495 12.3753C11.7495 12.2095 11.8154 12.0504 11.9327 11.9332C12.0499 11.8159 12.209 11.75 12.3749 11.75C12.5407 11.75 12.6998 11.8159 12.817 11.9332L17.9999 17.1168L23.1827 11.9332C23.2999 11.8159 23.459 11.75 23.6249 11.75C23.7907 11.75 23.9498 11.8159 24.067 11.9332C24.1843 12.0504 24.2502 12.2095 24.2502 12.3753C24.2502 12.5412 24.1843 12.7003 24.067 12.8175L18.8835 18.0003L24.067 23.1832Z" fill="white"/>
</svg>
