<svg xmlns="http://www.w3.org/2000/svg" width="20" height="20" fill="none"><path fill="#fff" d="m18.567 8.308-6.25-6.25a.625.625 0 0 0-1.067.442v3.152c-2.027.173-4.265 1.166-6.106 2.727-2.217 1.882-3.598 4.306-3.888 6.826a.938.938 0 0 0 1.616.749c.86-.915 3.917-3.808 8.378-4.063V15a.624.624 0 0 0 1.067.441l6.25-6.25a.625.625 0 0 0 0-.883ZM12.5 13.491V11.25a.625.625 0 0 0-.625-.625c-2.194 0-4.33.572-6.35 1.703A15.327 15.327 0 0 0 2.666 14.4c.453-1.863 1.595-3.634 3.285-5.067 1.814-1.539 4.028-2.458 5.923-2.458a.625.625 0 0 0 .625-.625V4.01l4.741 4.74L12.5 13.49Z"/></svg>