<svg width="20" height="20" viewBox="0 0 20 20" fill="#fff" xmlns="http://www.w3.org/2000/svg">
<path d="M18.5671 9.19268L12.3171 15.4427C12.2297 15.5302 12.1183 15.5898 11.997 15.6139C11.8757 15.6381 11.75 15.6257 11.6357 15.5784C11.5214 15.531 11.4238 15.4509 11.3551 15.348C11.2865 15.2451 11.2499 15.1242 11.25 15.0005V11.8935C6.78901 12.1466 3.73042 15.0396 2.87183 15.956C2.73701 16.0999 2.56021 16.1977 2.36659 16.2354C2.17298 16.2731 1.97241 16.2487 1.79343 16.1658C1.61446 16.0829 1.46619 15.9457 1.36974 15.7736C1.27328 15.6016 1.23355 15.4035 1.2562 15.2075C1.54605 12.6872 2.92651 10.263 5.1437 8.38174C6.98511 6.81924 9.22339 5.82784 11.25 5.6544V2.50049C11.2499 2.37681 11.2865 2.25587 11.3551 2.153C11.4238 2.05013 11.5214 1.96995 11.6357 1.9226C11.75 1.87526 11.8757 1.86288 11.997 1.88704C12.1183 1.91119 12.2297 1.9708 12.3171 2.0583L18.5671 8.3083C18.6252 8.36635 18.6713 8.43528 18.7028 8.51115C18.7343 8.58703 18.7504 8.66836 18.7504 8.75049C18.7504 8.83263 18.7343 8.91396 18.7028 8.98983C18.6713 9.0657 18.6252 9.13463 18.5671 9.19268Z" fill="inherit"/>
</svg>
