<svg width="36" height="36" viewBox="0 0 36 36" fill="none" xmlns="http://www.w3.org/2000/svg">
<path d="M0.675 17.7243C0.819454 17.8327 0.983833 17.9115 1.15875 17.9563C1.33367 18.0011 1.5157 18.011 1.69445 17.9855C1.87321 17.96 2.04518 17.8995 2.20055 17.8075C2.35593 17.7155 2.49166 17.5938 2.6 17.4493C3.4325 16.3393 4.51201 15.4384 5.75303 14.8179C6.99405 14.1974 8.3625 13.8743 9.75 13.8743C11.1375 13.8743 12.506 14.1974 13.747 14.8179C14.988 15.4384 16.0675 16.3393 16.9 17.4493C17.1191 17.7408 17.4449 17.9333 17.8059 17.9846C18.1669 18.0358 18.5335 17.9416 18.825 17.7226C18.9289 17.6453 19.021 17.5532 19.0983 17.4493C19.9308 16.3393 21.0103 15.4384 22.2513 14.8179C23.4923 14.1974 24.8608 13.8743 26.2483 13.8743C27.6358 13.8743 29.0042 14.1974 30.2453 14.8179C31.4863 15.4384 32.5658 16.3393 33.3983 17.4493C33.6173 17.7411 33.9433 17.9338 34.3044 17.9852C34.6656 18.0367 35.0324 17.9425 35.3241 17.7235C35.6159 17.5044 35.8087 17.1785 35.8601 16.8173C35.9115 16.4561 35.8173 16.0893 35.5983 15.7976C34.3812 14.1659 32.7582 12.8813 30.8906 12.0713C31.9145 11.1366 32.6318 9.91413 32.9484 8.56441C33.2651 7.21469 33.1663 5.80076 32.665 4.5082C32.1637 3.21564 31.2833 2.10483 30.1394 1.32155C28.9955 0.538281 27.6415 0.119141 26.2552 0.119141C24.8688 0.119141 23.5148 0.538281 22.3709 1.32155C21.227 2.10483 20.3466 3.21564 19.8453 4.5082C19.344 5.80076 19.2452 7.21469 19.5619 8.56441C19.8785 9.91413 20.5958 11.1366 21.6197 12.0713C20.2712 12.6544 19.0463 13.4892 18.0103 14.5309C16.9744 13.4892 15.7494 12.6544 14.4009 12.0713C15.4248 11.1366 16.1421 9.91413 16.4587 8.56441C16.7754 7.21469 16.6766 5.80076 16.1753 4.5082C15.674 3.21564 14.7936 2.10483 13.6497 1.32155C12.5058 0.538281 11.1518 0.119141 9.76547 0.119141C8.3791 0.119141 7.02512 0.538281 5.88122 1.32155C4.73732 2.10483 3.85695 3.21564 3.35565 4.5082C2.85436 5.80076 2.75555 7.21469 3.0722 8.56441C3.38885 9.91413 4.10616 11.1366 5.13 12.0713C3.25424 12.8786 1.62323 14.1641 0.4 15.7993C0.29166 15.9438 0.212832 16.1081 0.168019 16.2831C0.123205 16.458 0.113283 16.64 0.13882 16.8188C0.164356 16.9975 0.22485 17.1695 0.316848 17.3249C0.408846 17.4802 0.530546 17.616 0.675 17.7243ZM26.25 2.87432C27.0658 2.87432 27.8634 3.11625 28.5417 3.56951C29.2201 4.02277 29.7488 4.667 30.061 5.42075C30.3732 6.17449 30.4549 7.00389 30.2957 7.80407C30.1366 8.60424 29.7437 9.33924 29.1668 9.91613C28.5899 10.493 27.8549 10.8859 27.0547 11.0451C26.2546 11.2042 25.4252 11.1225 24.6714 10.8103C23.9177 10.4981 23.2734 9.9694 22.8202 9.29105C22.3669 8.61269 22.125 7.81517 22.125 6.99932C22.125 5.9053 22.5596 4.85609 23.3332 4.0825C24.1068 3.30892 25.156 2.87432 26.25 2.87432ZM9.75 2.87432C10.5658 2.87432 11.3634 3.11625 12.0417 3.56951C12.7201 4.02277 13.2488 4.667 13.561 5.42075C13.8732 6.17449 13.9549 7.00389 13.7957 7.80407C13.6366 8.60424 13.2437 9.33924 12.6668 9.91613C12.0899 10.493 11.3549 10.8859 10.5547 11.0451C9.75458 11.2042 8.92518 11.1225 8.17143 10.8103C7.41769 10.4981 6.77345 9.9694 6.32019 9.29105C5.86693 8.61269 5.625 7.81517 5.625 6.99932C5.625 5.9053 6.0596 4.85609 6.83318 4.0825C7.60677 3.30892 8.65598 2.87432 9.75 2.87432ZM30.8906 29.9463C31.9145 29.0116 32.6318 27.7891 32.9484 26.4394C33.2651 25.0897 33.1663 23.6758 32.665 22.3832C32.1637 21.0906 31.2833 19.9798 30.1394 19.1966C28.9955 18.4133 27.6415 17.9941 26.2552 17.9941C24.8688 17.9941 23.5148 18.4133 22.3709 19.1966C21.227 19.9798 20.3466 21.0906 19.8453 22.3832C19.344 23.6758 19.2452 25.0897 19.5619 26.4394C19.8785 27.7891 20.5958 29.0116 21.6197 29.9463C20.2712 30.5294 19.0463 31.3642 18.0103 32.4059C16.9744 31.3642 15.7494 30.5294 14.4009 29.9463C15.4248 29.0116 16.1421 27.7891 16.4587 26.4394C16.7754 25.0897 16.6766 23.6758 16.1753 22.3832C15.674 21.0906 14.7936 19.9798 13.6497 19.1966C12.5058 18.4133 11.1518 17.9941 9.76547 17.9941C8.3791 17.9941 7.02512 18.4133 5.88122 19.1966C4.73732 19.9798 3.85695 21.0906 3.35565 22.3832C2.85436 23.6758 2.75555 25.0897 3.0722 26.4394C3.38885 27.7891 4.10616 29.0116 5.13 29.9463C3.25424 30.7536 1.62323 32.0391 0.4 33.6743C0.29166 33.8188 0.212832 33.9831 0.168019 34.1581C0.123205 34.333 0.113283 34.515 0.13882 34.6938C0.164356 34.8725 0.22485 35.0445 0.316848 35.1999C0.408846 35.3552 0.530546 35.491 0.675 35.5993C0.819454 35.7077 0.983833 35.7865 1.15875 35.8313C1.33367 35.8761 1.5157 35.886 1.69445 35.8605C1.87321 35.835 2.04518 35.7745 2.20055 35.6825C2.35593 35.5905 2.49166 35.4688 2.6 35.3243C3.4325 34.2143 4.51201 33.3134 5.75303 32.6929C6.99405 32.0724 8.3625 31.7493 9.75 31.7493C11.1375 31.7493 12.506 32.0724 13.747 32.6929C14.988 33.3134 16.0675 34.2143 16.9 35.3243C17.1191 35.6158 17.4449 35.8083 17.8059 35.8596C18.1669 35.9108 18.5335 35.8166 18.825 35.5976C18.9289 35.5203 19.021 35.4282 19.0983 35.3243C19.9308 34.2143 21.0103 33.3134 22.2513 32.6929C23.4923 32.0724 24.8608 31.7493 26.2483 31.7493C27.6358 31.7493 29.0042 32.0724 30.2453 32.6929C31.4863 33.3134 32.5658 34.2143 33.3983 35.3243C33.6173 35.6161 33.9433 35.8088 34.3044 35.8602C34.6656 35.9117 35.0324 35.8175 35.3241 35.5985C35.6159 35.3794 35.8087 35.0535 35.8601 34.6923C35.9115 34.3311 35.8173 33.9643 35.5983 33.6726C34.3812 32.0409 32.7582 30.7563 30.8906 29.9463ZM9.75 20.7493C10.5658 20.7493 11.3634 20.9912 12.0417 21.4445C12.7201 21.8978 13.2488 22.542 13.561 23.2957C13.8732 24.0495 13.9549 24.8789 13.7957 25.6791C13.6366 26.4792 13.2437 27.2142 12.6668 27.7911C12.0899 28.368 11.3549 28.7609 10.5547 28.9201C9.75458 29.0792 8.92518 28.9975 8.17143 28.6853C7.41769 28.3731 6.77345 27.8444 6.32019 27.166C5.86693 26.4877 5.625 25.6902 5.625 24.8743C5.625 23.7803 6.0596 22.7311 6.83318 21.9575C7.60677 21.1839 8.65598 20.7493 9.75 20.7493ZM26.25 20.7493C27.0658 20.7493 27.8634 20.9912 28.5417 21.4445C29.2201 21.8978 29.7488 22.542 30.061 23.2957C30.3732 24.0495 30.4549 24.8789 30.2957 25.6791C30.1366 26.4792 29.7437 27.2142 29.1668 27.7911C28.5899 28.368 27.8549 28.7609 27.0547 28.9201C26.2546 29.0792 25.4252 28.9975 24.6714 28.6853C23.9177 28.3731 23.2734 27.8444 22.8202 27.166C22.3669 26.4877 22.125 25.6902 22.125 24.8743C22.125 23.7803 22.5596 22.7311 23.3332 21.9575C24.1068 21.1839 25.156 20.7493 26.25 20.7493Z" fill="#393B3B"/>
</svg>
