<svg width="16" height="16" viewBox="0 0 16 16" fill="none" xmlns="http://www.w3.org/2000/svg">
<path d="M9.3507 5.3573L3.7507 10.8573C3.65718 10.9493 3.53125 11.0008 3.40007 11.0008C3.2689 11.0008 3.14297 10.9493 3.04945 10.8573L0.64945 8.50042C0.602625 8.45438 0.565328 8.39956 0.539689 8.3391C0.514049 8.27864 0.500569 8.21373 0.500018 8.14806C0.499466 8.08239 0.511855 8.01725 0.536475 7.95637C0.561096 7.89549 0.597467 7.84006 0.643512 7.79323C0.689557 7.74641 0.744374 7.70911 0.804832 7.68347C0.865291 7.65783 0.930208 7.64435 0.995876 7.6438C1.06154 7.64325 1.12668 7.65564 1.18756 7.68026C1.24844 7.70488 1.30388 7.74125 1.3507 7.7873L3.40007 9.7998L8.65007 4.64355C8.74472 4.55055 8.87244 4.49897 9.00512 4.50014C9.07082 4.50072 9.13576 4.51424 9.19623 4.53992C9.25671 4.56559 9.31153 4.60293 9.35757 4.6498C9.40362 4.69666 9.43998 4.75214 9.46459 4.81306C9.48919 4.87397 9.50156 4.93914 9.50098 5.00484C9.5004 5.07054 9.48688 5.13548 9.4612 5.19595C9.43553 5.25643 9.39819 5.31125 9.35132 5.3573H9.3507ZM15.3569 4.6498C15.3109 4.6029 15.2561 4.56553 15.1956 4.53983C15.1352 4.51413 15.0702 4.5006 15.0045 4.50002C14.9388 4.49944 14.8736 4.51182 14.8127 4.53644C14.7518 4.56107 14.6963 4.59747 14.6494 4.64355L9.39945 9.7998L8.22257 8.64355C8.12793 8.55064 8.00025 8.49913 7.86762 8.50036C7.735 8.50159 7.6083 8.55546 7.51539 8.65011C7.42248 8.74476 7.37097 8.87244 7.37221 9.00506C7.37344 9.13768 7.4273 9.26439 7.52195 9.3573L9.04882 10.8573C9.14234 10.9493 9.26827 11.0008 9.39945 11.0008C9.53063 11.0008 9.65655 10.9493 9.75007 10.8573L15.3501 5.3573C15.397 5.31131 15.4344 5.25653 15.4602 5.19607C15.4859 5.13562 15.4995 5.07068 15.5002 5.00497C15.5008 4.93926 15.4885 4.87407 15.4639 4.81313C15.4393 4.75218 15.403 4.69668 15.3569 4.6498Z" fill="#F8F8F8"/>
</svg>
