<svg width="16" height="17" viewBox="0 0 16 17" fill="none" xmlns="http://www.w3.org/2000/svg">
<path d="M14.354 5.35403L6.35403 13.354C6.30759 13.4005 6.25245 13.4374 6.19175 13.4626C6.13105 13.4877 6.06599 13.5007 6.00028 13.5007C5.93457 13.5007 5.86951 13.4877 5.80881 13.4626C5.74811 13.4374 5.69296 13.4005 5.64653 13.354L2.14653 9.85403C2.05271 9.76021 2 9.63296 2 9.50028C2 9.3676 2.05271 9.24035 2.14653 9.14653C2.24035 9.05271 2.3676 9 2.50028 9C2.63296 9 2.76021 9.05271 2.85403 9.14653L6.00028 12.2934L13.6465 4.64653C13.7403 4.55271 13.8676 4.5 14.0003 4.5C14.133 4.5 14.2602 4.55271 14.354 4.64653C14.4478 4.74035 14.5006 4.8676 14.5006 5.00028C14.5006 5.13296 14.4478 5.26021 14.354 5.35403Z" fill="white"/>
</svg>
