<svg width="25" height="24" viewBox="0 0 25 24" fill="#ddd" xmlns="http://www.w3.org/2000/svg">
<path d="M20.3682 4.5H3.86816C3.66925 4.5 3.47849 4.57902 3.33783 4.71967C3.19718 4.86032 3.11816 5.05109 3.11816 5.25C3.11816 5.44891 3.19718 5.63968 3.33783 5.78033C3.47849 5.92098 3.66925 6 3.86816 6H4.61816V19.5C4.61816 19.8978 4.7762 20.2794 5.0575 20.5607C5.33881 20.842 5.72034 21 6.11816 21H18.1182C18.516 21 18.8975 20.842 19.1788 20.5607C19.4601 20.2794 19.6182 19.8978 19.6182 19.5V6H20.3682C20.5671 6 20.7578 5.92098 20.8985 5.78033C21.0391 5.63968 21.1182 5.44891 21.1182 5.25C21.1182 5.05109 21.0391 4.86032 20.8985 4.71967C20.7578 4.57902 20.5671 4.5 20.3682 4.5ZM18.1182 19.5H6.11816V6H18.1182V19.5ZM7.61816 2.25C7.61816 2.05109 7.69718 1.86032 7.83783 1.71967C7.97849 1.57902 8.16925 1.5 8.36816 1.5H15.8682C16.0671 1.5 16.2578 1.57902 16.3985 1.71967C16.5391 1.86032 16.6182 2.05109 16.6182 2.25C16.6182 2.44891 16.5391 2.63968 16.3985 2.78033C16.2578 2.92098 16.0671 3 15.8682 3H8.36816C8.16925 3 7.97849 2.92098 7.83783 2.78033C7.69718 2.63968 7.61816 2.44891 7.61816 2.25Z" fill="inherit"/>
</svg>
