<svg width="46" height="57" viewBox="0 0 46 57" fill="none" xmlns="http://www.w3.org/2000/svg">
<path d="M44.6691 44.4062H36.9617C34.5094 44.4062 32.5215 42.4184 32.5215 39.9661C32.5215 37.5139 34.5094 35.526 36.9617 35.526H44.6691V44.4062Z" stroke="white" stroke-width="2.19074" stroke-miterlimit="10" stroke-linecap="round" stroke-linejoin="round"/>
<path d="M35.5936 24.3711L40.8428 14.4289C41.5089 13.1672 41.0238 11.6056 39.7593 10.9409L22.8315 2.04383C21.5669 1.37916 20.0018 1.86325 19.3356 3.12489L8.11816 24.3711H35.5936Z" stroke="white" stroke-width="2.19074" stroke-miterlimit="10" stroke-linecap="round" stroke-linejoin="round"/>
<path d="M30.1835 24.3711L33.8214 17.4807C31.8062 16.4215 31.0331 13.9329 32.0947 11.9224L26.3544 8.90536C25.2928 10.9159 22.7985 11.6872 20.7834 10.6281L13.5273 24.3711H30.1835Z" stroke="white" stroke-width="2.19074" stroke-miterlimit="10" stroke-linecap="round" stroke-linejoin="round"/>
<path d="M42.3255 44.6335V52.145C42.3255 54.0281 40.7989 55.5547 38.9158 55.5547H4.73963C2.85652 55.5547 1.33008 54.0281 1.33008 52.145V27.777C1.33008 25.8939 2.85652 24.3674 4.73963 24.3674H38.9158C40.7989 24.3674 42.3255 25.8939 42.3255 27.777V35.3621" stroke="white" stroke-width="2.19074" stroke-miterlimit="10" stroke-linecap="round" stroke-linejoin="round"/>
</svg>
