<svg xmlns="http://www.w3.org/2000/svg" width="44" height="44" viewBox="0 0 44 44" fill="none"><path fill="url(#a)" d="M20.249 3.634a4 4 0 0 1 3.061 0l10.218 4.232a4 4 0 0 1 2.164 2.165l4.233 10.218a4 4 0 0 1 0 3.061l-4.233 10.218a4 4 0 0 1-2.164 2.164L23.31 39.925a4 4 0 0 1-3.061 0L10.03 35.692a4 4 0 0 1-2.165-2.164L3.634 23.31a4 4 0 0 1 0-3.061L7.866 10.03a4 4 0 0 1 2.165-2.165L20.25 3.634Z"/><path fill="url(#b)" d="M20.291 5.767a4 4 0 0 1 3.062 0l8.74 3.62a4 4 0 0 1 2.165 2.165l3.62 8.74a4 4 0 0 1 0 3.062l-3.62 8.74a4 4 0 0 1-2.165 2.165l-8.74 3.62a4 4 0 0 1-3.062 0l-8.74-3.62a4 4 0 0 1-2.165-2.165l-3.62-8.74a4 4 0 0 1 0-3.062l3.62-8.74a4 4 0 0 1 2.165-2.165l8.74-3.62Z"/><path fill="url(#c)" d="M20.248 10.13a4 4 0 0 1 3.061 0l5.625 2.33a4 4 0 0 1 2.165 2.165l2.33 5.625a4 4 0 0 1 0 3.061l-2.33 5.625a4 4 0 0 1-2.165 2.165l-5.625 2.33a4 4 0 0 1-3.061 0l-5.625-2.33a4 4 0 0 1-2.165-2.165l-2.33-5.625a4 4 0 0 1 0-3.061l2.33-5.625a4 4 0 0 1 2.165-2.165l5.625-2.33Z"/><path fill="url(#d)" d="m23.036 15.89.882 1.742c.205.404.597.684 1.05.751l1.956.288c1.146.168 1.604 1.554.777 2.354l-1.41 1.364a1.37 1.37 0 0 0-.402 1.214l.327 1.92c.191 1.125-1.006 1.981-2.034 1.454l-1.754-.898a1.425 1.425 0 0 0-1.298 0l-1.754.898c-1.028.527-2.225-.329-2.034-1.454l.327-1.92a1.37 1.37 0 0 0-.401-1.215l-1.41-1.364c-.828-.8-.37-2.185.776-2.353l1.956-.288a1.403 1.403 0 0 0 1.05-.75l.882-1.742c.517-1.021 1.997-1.021 2.514 0Z"/><defs><linearGradient id="a" x1="21.779" x2="21.779" y1="3" y2="40.559" gradientUnits="userSpaceOnUse"><stop stop-color="#FCD713"/><stop offset="1" stop-color="#F6B50E"/></linearGradient><linearGradient id="b" x1="21.822" x2="21.822" y1="5.133" y2="38.513" gradientUnits="userSpaceOnUse"><stop stop-color="#FCD80F"/><stop offset="1" stop-color="#FCD810"/></linearGradient><linearGradient id="c" x1="21.779" x2="21.779" y1="9.496" y2="34.065" gradientUnits="userSpaceOnUse"><stop offset=".376" stop-color="#E7B401"/><stop offset=".506" stop-color="#F8CA26"/><stop offset=".691" stop-color="#E39804"/></linearGradient><linearGradient id="d" x1="17.808" x2="26.393" y1="17.545" y2="27.191" gradientUnits="userSpaceOnUse"><stop stop-color="#FDEE55"/><stop offset="1" stop-color="#FDDF26"/></linearGradient></defs></svg>