<svg width="45" height="44" viewBox="0 0 45 44" fill="none" xmlns="http://www.w3.org/2000/svg">
<path d="M20.6763 3.63405C21.6564 3.22808 22.7577 3.22807 23.7378 3.63405L33.9553 7.86628C34.9354 8.27225 35.7141 9.05095 36.1201 10.0311L40.3523 20.2486C40.7583 21.2287 40.7583 22.3299 40.3523 23.31L36.1201 33.5275C35.7141 34.5076 34.9354 35.2863 33.9553 35.6923L23.7378 39.9245C22.7577 40.3305 21.6564 40.3305 20.6763 39.9245L10.4588 35.6923C9.47869 35.2863 8.69999 34.5076 8.29401 33.5275L4.06179 23.31C3.65581 22.3299 3.65581 21.2287 4.06179 20.2486L8.29401 10.0311C8.69999 9.05095 9.47868 8.27225 10.4588 7.86628L20.6763 3.63405Z" fill="url(#paint0_linear_1112_75839)"/>
<path d="M20.7189 5.76686C21.6991 5.36089 22.8003 5.36089 23.7804 5.76686L32.5206 9.38718C33.5007 9.79315 34.2794 10.5719 34.6854 11.552L38.3057 20.2922C38.7117 21.2723 38.7117 22.3735 38.3057 23.3536L34.6854 32.0939C34.2794 33.074 33.5007 33.8527 32.5206 34.2586L23.7804 37.879C22.8003 38.2849 21.6991 38.2849 20.7189 37.879L11.9787 34.2586C10.9986 33.8527 10.2199 33.074 9.81394 32.0939L6.19362 23.3536C5.78765 22.3735 5.78765 21.2723 6.19362 20.2922L9.81394 11.552C10.2199 10.5719 10.9986 9.79315 11.9787 9.38718L20.7189 5.76686Z" fill="url(#paint1_linear_1112_75839)"/>
<path d="M20.6756 10.1301C21.6558 9.72417 22.757 9.72417 23.7371 10.1301L29.3621 12.4601C30.3422 12.8661 31.1209 13.6448 31.5269 14.6249L33.8568 20.2499C34.2628 21.23 34.2628 22.3312 33.8568 23.3113L31.5269 28.9363C31.1209 29.9164 30.3422 30.6951 29.3621 31.1011L23.7371 33.4311C22.757 33.837 21.6558 33.837 20.6756 33.4311L15.0507 31.1011C14.0705 30.6951 13.2918 29.9164 12.8859 28.9363L10.5559 23.3113C10.1499 22.3312 10.1499 21.23 10.5559 20.2499L12.8859 14.6249C13.2918 13.6448 14.0705 12.8661 15.0507 12.4601L20.6756 10.1301Z" fill="url(#paint2_linear_1112_75839)"/>
<path d="M23.4639 15.8909L24.3461 17.6325C24.5506 18.0363 24.9425 18.3164 25.3959 18.3831L27.3515 18.6707C28.498 18.8393 28.9554 20.225 28.1284 21.0245L26.7181 22.3885C26.3911 22.7046 26.2417 23.1582 26.3172 23.6031L26.6437 25.5227C26.8351 26.648 25.6376 27.5043 24.6093 26.9775L22.8555 26.0788C22.449 25.8705 21.9648 25.8705 21.558 26.0788L19.8041 26.9775C18.7759 27.5043 17.5783 26.648 17.7698 25.5227L18.0963 23.6031C18.1721 23.1582 18.0224 22.7046 17.6953 22.3885L16.285 21.0245C15.4581 20.2247 15.9157 18.8393 17.062 18.6707L19.0176 18.3831C19.471 18.3164 19.8629 18.0363 20.0674 17.6325L20.9496 15.8909C21.4668 14.8697 22.9467 14.8697 23.4639 15.8909Z" fill="url(#paint3_linear_1112_75839)"/>
<defs>
<linearGradient id="paint0_linear_1112_75839" x1="22.207" y1="3" x2="22.207" y2="40.5586" gradientUnits="userSpaceOnUse">
<stop stop-color="#CFCFCF"/>
<stop offset="1" stop-color="#A4A4A4"/>
</linearGradient>
<linearGradient id="paint1_linear_1112_75839" x1="22.2497" y1="5.13281" x2="22.2497" y2="38.513" gradientUnits="userSpaceOnUse">
<stop stop-color="#F3F3F3"/>
<stop offset="1" stop-color="#C9C9C9"/>
</linearGradient>
<linearGradient id="paint2_linear_1112_75839" x1="22.2064" y1="9.49609" x2="22.2064" y2="34.0651" gradientUnits="userSpaceOnUse">
<stop offset="0.375814" stop-color="#C8C4C4"/>
<stop offset="0.505814" stop-color="#F1EFED"/>
<stop offset="0.690814" stop-color="#B1B0AF"/>
</linearGradient>
<linearGradient id="paint3_linear_1112_75839" x1="18.236" y1="17.5452" x2="26.8211" y2="27.191" gradientUnits="userSpaceOnUse">
<stop stop-color="#F9F7F7"/>
<stop offset="1" stop-color="#F4F4F4"/>
</linearGradient>
</defs>
</svg>
