<svg xmlns="http://www.w3.org/2000/svg" width="44" height="44" viewBox="0 0 44 44" fill="none"><path fill="url(#a)" d="M20.303 3.634a4 4 0 0 1 3.062 0l10.217 4.232a4 4 0 0 1 2.165 2.165l4.232 10.218a4 4 0 0 1 0 3.061l-4.232 10.218a4 4 0 0 1-2.165 2.164l-10.217 4.233a4 4 0 0 1-3.062 0l-10.217-4.233a4 4 0 0 1-2.165-2.164L3.689 23.31a4 4 0 0 1 0-3.061L7.92 10.03a4 4 0 0 1 2.165-2.165l10.217-4.232Z"/><path fill="url(#b)" d="M20.346 5.767a4 4 0 0 1 3.061 0l8.74 3.62a4 4 0 0 1 2.165 2.165l3.62 8.74a4 4 0 0 1 0 3.062l-3.62 8.74a4 4 0 0 1-2.164 2.165l-8.74 3.62a4 4 0 0 1-3.062 0l-8.74-3.62a4 4 0 0 1-2.165-2.165l-3.62-8.74a4 4 0 0 1 0-3.062l3.62-8.74a4 4 0 0 1 2.165-2.165l8.74-3.62Z"/><path fill="url(#c)" d="M20.303 10.13a4 4 0 0 1 3.061 0l5.625 2.33a4 4 0 0 1 2.165 2.165l2.33 5.625a4 4 0 0 1 0 3.061l-2.33 5.625a4 4 0 0 1-2.165 2.165l-5.625 2.33a4 4 0 0 1-3.061 0l-5.625-2.33a4 4 0 0 1-2.165-2.165l-2.33-5.625a4 4 0 0 1 0-3.061l2.33-5.625a4 4 0 0 1 2.165-2.165l5.625-2.33Z"/><path fill="url(#d)" d="m23.09 15.89.883 1.742c.204.404.597.684 1.05.751l1.956.288c1.146.168 1.603 1.554.776 2.354l-1.41 1.364a1.37 1.37 0 0 0-.4 1.214l.326 1.92c.191 1.125-1.006 1.981-2.035 1.454l-1.753-.898a1.425 1.425 0 0 0-1.298 0l-1.754.898c-1.028.527-2.226-.329-2.034-1.454l.326-1.92a1.37 1.37 0 0 0-.4-1.215l-1.411-1.364c-.827-.8-.37-2.185.777-2.353l1.956-.288a1.404 1.404 0 0 0 1.05-.75l.882-1.742c.517-1.021 1.997-1.021 2.514 0Z"/><defs><linearGradient id="a" x1="21.834" x2="21.834" y1="3" y2="40.559" gradientUnits="userSpaceOnUse"><stop stop-color="#CFCFCF"/><stop offset="1" stop-color="#A4A4A4"/></linearGradient><linearGradient id="b" x1="21.877" x2="21.877" y1="5.133" y2="38.513" gradientUnits="userSpaceOnUse"><stop stop-color="#F3F3F3"/><stop offset="1" stop-color="#C9C9C9"/></linearGradient><linearGradient id="c" x1="21.833" x2="21.833" y1="9.496" y2="34.065" gradientUnits="userSpaceOnUse"><stop offset=".376" stop-color="#C8C4C4"/><stop offset=".506" stop-color="#F1EFED"/><stop offset=".691" stop-color="#B1B0AF"/></linearGradient><linearGradient id="d" x1="17.863" x2="26.448" y1="17.545" y2="27.191" gradientUnits="userSpaceOnUse"><stop stop-color="#F9F7F7"/><stop offset="1" stop-color="#F4F4F4"/></linearGradient></defs></svg>