<svg width="45" height="44" viewBox="0 0 45 44" fill="none" xmlns="http://www.w3.org/2000/svg">
<path d="M20.6216 3.8528C21.6017 3.44683 22.703 3.44682 23.6831 3.8528L33.9006 8.08503C34.8807 8.491 35.6594 9.2697 36.0654 10.2498L40.2976 20.4673C40.7036 21.4474 40.7036 22.5487 40.2976 23.5288L36.0654 33.7463C35.6594 34.7264 34.8807 35.5051 33.9006 35.9111L23.6831 40.1433C22.703 40.5493 21.6017 40.5493 20.6216 40.1433L10.4041 35.9111C9.424 35.5051 8.6453 34.7264 8.23933 33.7463L4.0071 23.5288C3.60112 22.5487 3.60112 21.4474 4.0071 20.4673L8.23932 10.2498C8.6453 9.2697 9.424 8.491 10.4041 8.08503L20.6216 3.8528Z" fill="url(#paint0_linear_1112_75848)"/>
<path d="M20.6643 5.98561C21.6444 5.57964 22.7456 5.57964 23.7257 5.98561L32.4659 9.60593C33.446 10.0119 34.2247 10.7906 34.6307 11.7707L38.251 20.5109C38.657 21.491 38.657 22.5923 38.251 23.5724L34.6307 32.3126C34.2247 33.2927 33.446 34.0714 32.4659 34.4774L23.7257 38.0977C22.7456 38.5037 21.6444 38.5037 20.6643 38.0977L11.924 34.4774C10.9439 34.0714 10.1652 33.2927 9.75925 32.3126L6.13893 23.5724C5.73296 22.5923 5.73296 21.491 6.13893 20.5109L9.75925 11.7707C10.1652 10.7906 10.9439 10.0119 11.924 9.60593L20.6643 5.98561Z" fill="url(#paint1_linear_1112_75848)"/>
<path d="M20.621 10.3489C21.6011 9.94292 22.7023 9.94292 23.6824 10.3489L29.3074 12.6788C30.2875 13.0848 31.0662 13.8635 31.4722 14.8436L33.8022 20.4686C34.2081 21.4487 34.2081 22.55 33.8022 23.5301L31.4722 29.1551C31.0662 30.1352 30.2875 30.9139 29.3074 31.3199L23.6824 33.6498C22.7023 34.0558 21.6011 34.0558 20.621 33.6498L14.996 31.3199C14.0159 30.9139 13.2372 30.1352 12.8312 29.1551L10.5012 23.5301C10.0953 22.55 10.0953 21.4487 10.5012 20.4686L12.8312 14.8436C13.2372 13.8635 14.0159 13.0848 14.996 12.6788L20.621 10.3489Z" fill="url(#paint2_linear_1112_75848)"/>
<path d="M23.4092 16.1096L24.2914 17.8513C24.4959 18.2551 24.8878 18.5351 25.3412 18.6019L27.2968 18.8895C28.4433 19.058 28.9007 20.4437 28.0738 21.2432L26.6635 22.6073C26.3364 22.9234 26.187 23.3769 26.2625 23.8218L26.589 25.7414C26.7805 26.8668 25.5829 27.7231 24.5547 27.1963L22.8008 26.2976C22.3943 26.0893 21.9101 26.0893 21.5033 26.2976L19.7494 27.1963C18.7212 27.7231 17.5237 26.8668 17.7151 25.7414L18.0416 23.8218C18.1174 23.3769 17.9677 22.9234 17.6406 22.6073L16.2304 21.2432C15.4034 20.4435 15.861 19.058 17.0073 18.8895L18.9629 18.6019C19.4163 18.5351 19.8082 18.2551 20.0127 17.8513L20.8949 16.1096C21.4121 15.0885 22.892 15.0885 23.4092 16.1096Z" fill="url(#paint3_linear_1112_75848)"/>
<defs>
<linearGradient id="paint0_linear_1112_75848" x1="22.1523" y1="3.21875" x2="22.1523" y2="40.7773" gradientUnits="userSpaceOnUse">
<stop stop-color="#873607"/>
<stop offset="1" stop-color="#B96529"/>
</linearGradient>
<linearGradient id="paint1_linear_1112_75848" x1="22.195" y1="5.35156" x2="22.195" y2="38.7318" gradientUnits="userSpaceOnUse">
<stop stop-color="#B76529"/>
<stop offset="1" stop-color="#DF762F"/>
</linearGradient>
<linearGradient id="paint2_linear_1112_75848" x1="22.1517" y1="9.71484" x2="22.1517" y2="34.2839" gradientUnits="userSpaceOnUse">
<stop offset="0.375814" stop-color="#823105"/>
<stop offset="0.505814" stop-color="#AD5417"/>
<stop offset="0.690814" stop-color="#8E3604"/>
</linearGradient>
<linearGradient id="paint3_linear_1112_75848" x1="18.1813" y1="17.7639" x2="26.7664" y2="27.4098" gradientUnits="userSpaceOnUse">
<stop stop-color="#E1823D"/>
<stop offset="1" stop-color="#DA842F"/>
</linearGradient>
</defs>
</svg>
