<svg xmlns="http://www.w3.org/2000/svg" width="44" height="44" viewBox="0 0 44 44" fill="none"><path fill="url(#a)" d="M20.249 3.853a4 4 0 0 1 3.061 0l10.218 4.232a4 4 0 0 1 2.164 2.165l4.233 10.217a4 4 0 0 1 0 3.062l-4.233 10.217a4 4 0 0 1-2.164 2.165L23.31 40.143a4 4 0 0 1-3.061 0L10.03 35.911a4 4 0 0 1-2.165-2.165L3.634 23.53a4 4 0 0 1 0-3.062L7.866 10.25a4 4 0 0 1 2.165-2.165L20.25 3.853Z"/><path fill="url(#b)" d="M20.291 5.986a4 4 0 0 1 3.062 0l8.74 3.62a4 4 0 0 1 2.165 2.165l3.62 8.74a4 4 0 0 1 0 3.061l-3.62 8.74a4 4 0 0 1-2.165 2.165l-8.74 3.62a4 4 0 0 1-3.062 0l-8.74-3.62a4 4 0 0 1-2.165-2.164l-3.62-8.74a4 4 0 0 1 0-3.062l3.62-8.74a4 4 0 0 1 2.165-2.165l8.74-3.62Z"/><path fill="url(#c)" d="M20.248 10.349a4 4 0 0 1 3.061 0l5.625 2.33a4 4 0 0 1 2.165 2.165l2.33 5.625a4 4 0 0 1 0 3.061l-2.33 5.625a4 4 0 0 1-2.165 2.165l-5.625 2.33a4 4 0 0 1-3.061 0l-5.625-2.33a4 4 0 0 1-2.165-2.165l-2.33-5.625a4 4 0 0 1 0-3.061l2.33-5.625a4 4 0 0 1 2.165-2.165l5.625-2.33Z"/><path fill="url(#d)" d="m23.036 16.11.882 1.741c.205.404.597.684 1.05.75l1.956.289c1.146.168 1.604 1.554.777 2.353l-1.41 1.364a1.37 1.37 0 0 0-.402 1.215l.327 1.92c.191 1.125-1.006 1.981-2.034 1.454l-1.754-.898a1.425 1.425 0 0 0-1.298 0l-1.754.898c-1.028.527-2.225-.33-2.034-1.455l.327-1.92a1.369 1.369 0 0 0-.401-1.214l-1.41-1.364c-.828-.8-.37-2.185.776-2.353l1.956-.288a1.404 1.404 0 0 0 1.05-.75l.882-1.742c.517-1.021 1.997-1.021 2.514 0Z"/><defs><linearGradient id="a" x1="21.779" x2="21.779" y1="3.219" y2="40.777" gradientUnits="userSpaceOnUse"><stop stop-color="#873607"/><stop offset="1" stop-color="#B96529"/></linearGradient><linearGradient id="b" x1="21.822" x2="21.822" y1="5.352" y2="38.732" gradientUnits="userSpaceOnUse"><stop stop-color="#B76529"/><stop offset="1" stop-color="#DF762F"/></linearGradient><linearGradient id="c" x1="21.779" x2="21.779" y1="9.715" y2="34.284" gradientUnits="userSpaceOnUse"><stop offset=".376" stop-color="#823105"/><stop offset=".506" stop-color="#AD5417"/><stop offset=".691" stop-color="#8E3604"/></linearGradient><linearGradient id="d" x1="17.808" x2="26.393" y1="17.764" y2="27.41" gradientUnits="userSpaceOnUse"><stop stop-color="#E1823D"/><stop offset="1" stop-color="#DA842F"/></linearGradient></defs></svg>