<svg width="45" height="44" viewBox="0 0 45 44" fill="none" xmlns="http://www.w3.org/2000/svg">
<path d="M20.6216 3.63405C21.6017 3.22808 22.703 3.22807 23.6831 3.63405L33.9006 7.86628C34.8807 8.27225 35.6594 9.05095 36.0654 10.0311L40.2976 20.2486C40.7036 21.2287 40.7036 22.3299 40.2976 23.31L36.0654 33.5275C35.6594 34.5076 34.8807 35.2863 33.9006 35.6923L23.6831 39.9245C22.703 40.3305 21.6017 40.3305 20.6216 39.9245L10.4041 35.6923C9.424 35.2863 8.6453 34.5076 8.23933 33.5275L4.0071 23.31C3.60112 22.3299 3.60112 21.2287 4.0071 20.2486L8.23932 10.0311C8.6453 9.05095 9.424 8.27225 10.4041 7.86628L20.6216 3.63405Z" fill="url(#paint0_radial_1112_75857)"/>
<path d="M20.6643 5.76686C21.6444 5.36089 22.7456 5.36089 23.7257 5.76686L32.4659 9.38718C33.446 9.79315 34.2247 10.5719 34.6307 11.552L38.251 20.2922C38.657 21.2723 38.657 22.3735 38.251 23.3536L34.6307 32.0939C34.2247 33.074 33.446 33.8527 32.4659 34.2586L23.7257 37.879C22.7456 38.2849 21.6444 38.2849 20.6643 37.879L11.924 34.2586C10.9439 33.8527 10.1652 33.074 9.75925 32.0939L6.13893 23.3536C5.73296 22.3735 5.73296 21.2723 6.13893 20.2922L9.75925 11.552C10.1652 10.5719 10.9439 9.79315 11.924 9.38718L20.6643 5.76686Z" fill="#374642"/>
<path d="M20.621 10.1301C21.6011 9.72417 22.7023 9.72417 23.6824 10.1301L29.3074 12.4601C30.2875 12.8661 31.0662 13.6448 31.4722 14.6249L33.8022 20.2499C34.2081 21.23 34.2081 22.3312 33.8022 23.3113L31.4722 28.9363C31.0662 29.9164 30.2875 30.6951 29.3074 31.1011L23.6824 33.4311C22.7023 33.837 21.6011 33.837 20.621 33.4311L14.996 31.1011C14.0159 30.6951 13.2372 29.9164 12.8312 28.9363L10.5012 23.3113C10.0953 22.3312 10.0953 21.23 10.5012 20.2499L12.8312 14.6249C13.2372 13.6448 14.0159 12.8661 14.996 12.4601L20.621 10.1301Z" fill="url(#paint1_linear_1112_75857)"/>
<path d="M23.1491 26V24.41H19.1771V23.396L22.0271 17.36H23.2391L20.3891 23.396H23.1491V20.966H24.2291V23.396H25.1291V24.41H24.2291V26H23.1491Z" fill="#E4E8E7"/>
<defs>
<radialGradient id="paint0_radial_1112_75857" cx="0" cy="0" r="1" gradientUnits="userSpaceOnUse" gradientTransform="translate(22.1523 21.7793) rotate(90) scale(18.7793)">
<stop stop-color="#364743"/>
<stop offset="1" stop-color="#222C2A"/>
</radialGradient>
<linearGradient id="paint1_linear_1112_75857" x1="22.1517" y1="9.49609" x2="22.1517" y2="34.0651" gradientUnits="userSpaceOnUse">
<stop offset="0.375814" stop-color="#242F2C"/>
<stop offset="0.505814" stop-color="#374642"/>
<stop offset="0.690814" stop-color="#24302D"/>
</linearGradient>
</defs>
</svg>
