<svg xmlns="http://www.w3.org/2000/svg" width="39" height="38" viewBox="0 0 39 38" fill="none"><path fill="url(#a)" d="M17.749.634a4 4 0 0 1 3.061 0l10.218 4.232a4 4 0 0 1 2.164 2.165l4.233 10.218a4 4 0 0 1 0 3.061l-4.233 10.218a4 4 0 0 1-2.165 2.164L20.81 36.925a4 4 0 0 1-3.061 0L7.53 32.692a4 4 0 0 1-2.165-2.165L1.134 20.31a4 4 0 0 1 0-3.061L5.366 7.03a4 4 0 0 1 2.165-2.165L17.75.634Z"/><path fill="#374642" d="M17.791 2.767a4 4 0 0 1 3.062 0l8.74 3.62a4 4 0 0 1 2.165 2.165l3.62 8.74a4 4 0 0 1 0 3.062l-3.62 8.74a4 4 0 0 1-2.165 2.165l-8.74 3.62a4 4 0 0 1-3.062 0l-8.74-3.62a4 4 0 0 1-2.165-2.165l-3.62-8.74a4 4 0 0 1 0-3.062l3.62-8.74a4 4 0 0 1 2.165-2.165l8.74-3.62Z"/><path fill="url(#b)" d="M17.748 7.13a4 4 0 0 1 3.061 0l5.625 2.33a4 4 0 0 1 2.165 2.165l2.33 5.625a4 4 0 0 1 0 3.061l-2.33 5.625a4 4 0 0 1-2.165 2.165l-5.625 2.33a4 4 0 0 1-3.061 0l-5.625-2.33a4 4 0 0 1-2.165-2.165l-2.33-5.625a4 4 0 0 1 0-3.061l2.33-5.625a4 4 0 0 1 2.165-2.165l5.625-2.33Z"/><defs><radialGradient id="a" cx="0" cy="0" r="1" gradientTransform="rotate(90 .25 19.03) scale(18.7793)" gradientUnits="userSpaceOnUse"><stop stop-color="#364743"/><stop offset="1" stop-color="#222C2A"/></radialGradient><linearGradient id="b" x1="19.279" x2="19.279" y1="6.496" y2="31.065" gradientUnits="userSpaceOnUse"><stop offset=".376" stop-color="#242F2C"/><stop offset=".506" stop-color="#374642"/><stop offset=".691" stop-color="#24302D"/></linearGradient></defs></svg>