<svg width="33" height="33" viewBox="0 0 33 33" fill="none" xmlns="http://www.w3.org/2000/svg">
<path d="M13.75 20.1575V22.3932C13.7448 22.8644 13.6187 23.3262 13.3837 23.7346C13.1487 24.1429 12.8127 24.4841 12.408 24.7253C11.5488 25.3616 10.8499 26.1896 10.3668 27.1434C9.88368 28.0972 9.62969 29.1506 9.625 30.2198M19.25 20.1575V22.3932C19.2552 22.8644 19.3813 23.3262 19.6163 23.7346C19.8513 24.1429 20.1873 24.4841 20.592 24.7253C21.4512 25.3616 22.1501 26.1896 22.6332 27.1434C23.1163 28.0972 23.3703 29.1506 23.375 30.2198M24.75 12.375H26.8125C27.7242 12.375 28.5985 12.0128 29.2432 11.3682C29.8878 10.7235 30.25 9.84918 30.25 8.9375C30.25 8.02582 29.8878 7.15148 29.2432 6.50682C28.5985 5.86216 27.7242 5.5 26.8125 5.5H24.75M24.75 12.375C24.75 14.563 23.8808 16.6615 22.3336 18.2086C20.7865 19.7558 18.688 20.625 16.5 20.625C14.312 20.625 12.2135 19.7558 10.6664 18.2086C9.11919 16.6615 8.25 14.563 8.25 12.375M24.75 12.375V4.125C24.75 3.76033 24.6051 3.41059 24.3473 3.15273C24.0894 2.89487 23.7397 2.75 23.375 2.75H9.625C9.26033 2.75 8.91059 2.89487 8.65273 3.15273C8.39487 3.41059 8.25 3.76033 8.25 4.125V12.375M5.5 30.25H27.5M8.25 12.375H6.1875C5.27582 12.375 4.40148 12.0128 3.75682 11.3682C3.11216 10.7235 2.75 9.84918 2.75 8.9375C2.75 8.02582 3.11216 7.15148 3.75682 6.50682C4.40148 5.86216 5.27582 5.5 6.1875 5.5H8.25" stroke="white" stroke-width="2" stroke-linecap="round" stroke-linejoin="round"/>
</svg>
